<svg width="20" height="20" viewBox="0 0 20 20" fill="none" xmlns="http://www.w3.org/2000/svg">
<path d="M17 2.5H16C13.5938 2.5 11.4688 3.8125 10.3438 5.78125C10.25 5.625 10.125 5.5 10 5.375C11.25 3.34375 13.4688 2 16 2H17C17.5312 2 18 2.46875 18 3C18 6.46875 15.4688 9.34375 12.1562 9.90625C12.1562 9.75 12.125 9.59375 12.0938 9.4375C15.1562 8.90625 17.5 6.21875 17.5 3C17.5 2.75 17.25 2.5 17 2.5ZM4 4.5H3C2.71875 4.5 2.5 4.75 2.5 5C2.5 8.59375 5.40625 11.5 9 11.5H10.5V11C10.5 7.4375 7.5625 4.5 4 4.5ZM3 4H4C7.84375 4 11 7.15625 11 11V11.5V11.75V12V17.75C11 17.9062 10.875 18 10.75 18C10.5938 18 10.5 17.9062 10.5 17.75V12H9C5.125 12 2 8.875 2 5C2 4.46875 2.4375 4 3 4Z" fill="#D4D4D4"/>
</svg>
