<svg width="20" height="20" viewBox="0 0 20 20" fill="none" xmlns="http://www.w3.org/2000/svg">
<path d="M13.0938 4.84375C12.9688 4.875 12.8438 4.78125 12.8125 4.65625L12.6562 4.0625C12.5 3.375 11.9375 2.875 11.25 2.8125L10.4375 2.71875C10.3125 2.71875 10.2188 2.59375 10.2188 2.46875C10.25 2.34375 10.3438 2.25 10.4688 2.25L11.3125 2.34375C12.1875 2.4375 12.9062 3.0625 13.125 3.9375L13.2812 4.53125C13.3125 4.65625 13.2188 4.8125 13.0938 4.84375ZM2.65625 13.0625C2.78125 13.0625 2.90625 13.1562 2.9375 13.2812L2.96875 13.7188C3.0625 14.4688 3.65625 15.0312 4.40625 15.125L4.84375 15.1875C4.96875 15.2188 5.0625 15.3125 5.03125 15.4375C5.03125 15.5938 4.90625 15.6562 4.78125 15.6562L4.34375 15.5938C3.40625 15.4688 2.625 14.7188 2.5 13.75L2.46875 13.3438C2.4375 13.2188 2.53125 13.0938 2.65625 13.0625ZM6.8125 4.46875C6.84375 4.15625 6.96875 3.8125 7.21875 3.5625C7.78125 3 8.6875 3 9.21875 3.5625L13.75 8.0625V6.25C13.75 5.46875 14.375 4.84375 15.1562 4.84375C15.9375 4.84375 16.5625 5.46875 16.5625 6.25V11.6562C16.5625 14.6562 14.125 17.0938 11.125 17.0625H10.6875C10.6562 17.0625 10.6562 17.0625 10.625 17.0625C9.34375 17 8.09375 16.4688 7.1875 15.5312L3.5625 11.875C3 11.3125 3 10.4375 3.5625 9.875C3.8125 9.625 4.15625 9.5 4.5 9.46875L3.90625 8.875C3.34375 8.3125 3.34375 7.4375 3.90625 6.875C4.15625 6.625 4.5 6.5 4.8125 6.46875C4.34375 5.90625 4.375 5.0625 4.90625 4.5625C5.4375 4.03125 6.25 4 6.8125 4.46875ZM10.7188 16.5938H11.125C13.875 16.625 16.0938 14.4062 16.0938 11.6562V6.25C16.0938 5.71875 15.6875 5.3125 15.1562 5.3125C14.6562 5.3125 14.2188 5.71875 14.2188 6.25V8.65625C14.2188 8.75 14.1562 8.84375 14.0625 8.875C14 8.90625 13.875 8.875 13.8125 8.8125L8.90625 3.90625C8.53125 3.53125 7.9375 3.53125 7.5625 3.90625C7.1875 4.25 7.1875 4.84375 7.5625 5.21875L11.25 8.90625C11.3125 8.96875 11.3438 9.09375 11.3125 9.15625C11.25 9.25 11.1875 9.3125 11.0938 9.3125C11.0312 9.3125 10.9688 9.28125 10.9062 9.25L10.875 9.1875H10.8438L6.8125 5.15625L6.5625 4.875C6.1875 4.53125 5.59375 4.53125 5.21875 4.875C4.875 5.25 4.875 5.84375 5.21875 6.21875L7.90625 8.90625H7.9375L9.53125 10.5C9.625 10.5938 9.625 10.75 9.53125 10.8438C9.4375 10.9375 9.28125 10.9375 9.1875 10.8438L7.59375 9.25L5.5625 7.21875C5.1875 6.84375 4.59375 6.84375 4.21875 7.21875C3.875 7.59375 3.875 8.1875 4.21875 8.53125L5.15625 9.46875L7.875 12.1875C7.96875 12.2812 7.96875 12.4062 7.875 12.5C7.78125 12.5938 7.625 12.5938 7.53125 12.5L5.21875 10.2188C4.875 9.84375 4.25 9.84375 3.90625 10.2188C3.53125 10.5625 3.53125 11.1875 3.90625 11.5312L7.5 15.1875C8.34375 16.0625 9.5 16.5625 10.6875 16.5938H10.7188Z" fill="#D4D4D4"/>
</svg>
