<svg width="20" height="20" viewBox="0 0 20 20" fill="none" xmlns="http://www.w3.org/2000/svg">
<path d="M5.5625 9.625C6.375 9.21875 7.28125 9 8.25 9H11.75C11.875 9 12 9.125 12 9.25C12 9.40625 11.875 9.5 11.75 9.5H8.25C7.25 9.5 6.3125 9.75 5.5 10.2188C5.5 10.3125 5.5 10.4062 5.5 10.5C5.5 13.2812 7.71875 15.5 10.5 15.5C14.2812 15.5 17.5 11.75 17.5 6.90625C17.5 5.8125 17.3125 4.78125 17.0312 3.8125C16.2812 4.84375 15.0938 5.5 13.75 5.5H10.5C8.03125 5.5 6 7.28125 5.5625 9.625ZM5.03125 9.90625C5.3125 7.15625 7.65625 5 10.5 5H13.75C15.0625 5 16.2188 4.28125 16.8125 3.15625C16.9375 2.96875 17.25 2.96875 17.3438 3.15625C17.75 4.3125 18 5.5625 18 6.90625C18 11.9375 14.6562 16 10.5312 16H10.5C7.4375 16 5 13.5625 5 10.5312C3.46875 11.5625 2.5 13.2812 2.5 15.25V16.75C2.5 16.9062 2.375 17 2.25 17C2.09375 17 2 16.9062 2 16.75V15.25C2 13 3.1875 11 5.03125 9.90625Z" fill="#D4D4D4"/>
</svg>
