<svg width="20" height="20" viewBox="0 0 20 20" fill="none" xmlns="http://www.w3.org/2000/svg">
<path d="M9.25 4.25C9.25 4.6875 9.5625 5 10 5C10.4062 5 10.75 4.6875 10.75 4.25C10.75 3.84375 10.4062 3.5 10 3.5C9.5625 3.5 9.25 3.84375 9.25 4.25ZM11.25 4.25C11.25 4.9375 10.6875 5.5 10 5.5C9.84375 5.5 9.6875 5.5 9.5625 5.4375C9.625 5.46875 9.71875 5.5 9.8125 5.5L8 9.125C7.5625 9.96875 6.46875 10.2188 5.71875 9.625L2.84375 7.34375C3 7.25 3.125 7.15625 3.25 7L6.03125 9.25C6.53125 9.625 7.25 9.46875 7.53125 8.90625L9.34375 5.3125C8.96875 5.09375 8.75 4.71875 8.75 4.25C8.75 3.5625 9.28125 3 10 3C10.6875 3 11.25 3.5625 11.25 4.25ZM1.5 6.25C1.5 6.6875 1.8125 7 2.25 7C2.65625 7 3 6.6875 3 6.25C3 5.84375 2.65625 5.5 2.25 5.5C1.8125 5.5 1.5 5.84375 1.5 6.25ZM3.5 6.25C3.5 6.71875 3.25 7.125 2.875 7.34375C2.46875 7.5625 2 7.5625 1.625 7.34375C1.21875 7.125 1 6.71875 1 6.25C1 5.8125 1.21875 5.40625 1.625 5.1875C2 4.96875 2.46875 4.96875 2.875 5.1875C3.25 5.40625 3.5 5.8125 3.5 6.25ZM17.75 5.5C17.3125 5.5 17 5.84375 17 6.25C17 6.6875 17.3125 7 17.75 7C18.1562 7 18.5 6.6875 18.5 6.25C18.5 5.84375 18.1562 5.5 17.75 5.5ZM17.75 7.5C17.7188 7.5 17.7188 7.5 17.7188 7.5L16.2812 15.375C16.125 16.3125 15.2812 17 14.3125 17H5.65625C4.6875 17 3.84375 16.3125 3.6875 15.375L2.25 7.5C2.4375 7.5 2.59375 7.46875 2.75 7.40625L4.1875 15.2812C4.3125 16 4.9375 16.5 5.65625 16.5H14.3125C15.0312 16.5 15.6562 16 15.7812 15.2812L17.2188 7.40625C17.25 7.40625 17.25 7.40625 17.25 7.40625C17.2188 7.40625 17.1562 7.375 17.125 7.34375L14.25 9.625C13.5312 10.2188 12.4062 10 12 9.125L10.1562 5.5C10.3438 5.46875 10.5 5.40625 10.6562 5.3125L12.4375 8.90625C12.7188 9.46875 13.4688 9.625 13.9375 9.25L16.75 7C16.5938 6.8125 16.5 6.53125 16.5 6.25C16.5 5.5625 17.0312 5 17.75 5C18.4375 5 19 5.5625 19 6.25C19 6.96875 18.4375 7.5 17.75 7.5Z" fill="#D4D4D4"/>
</svg>
