<svg width="20" height="20" viewBox="0 0 20 20" fill="none" xmlns="http://www.w3.org/2000/svg">
<path d="M6.65625 3.03125C6.6875 3 6.75 3 6.8125 3.03125L13.2188 5L17.6562 3.40625C18.3125 3.15625 19 3.65625 19 4.34375V14.25C19 14.6562 18.7188 15.0312 18.3125 15.1875L13.3125 17C13.2812 17.0312 13.2188 17.0312 13.1562 17L6.75 15.0312L2.3125 16.625C1.6875 16.875 1 16.375 1 15.6875V5.78125C1 5.375 1.25 5 1.65625 4.84375L6.65625 3.03125ZM1.8125 5.3125C1.625 5.40625 1.5 5.59375 1.5 5.78125V15.6875C1.5 16.0312 1.84375 16.2812 2.15625 16.1562L6.5 14.5938V3.625L1.8125 5.3125ZM13 16.4375V5.4375L7 3.59375V14.5938L13 16.4375ZM13.5 16.4062L18.1562 14.7188C18.3438 14.625 18.5 14.4375 18.5 14.25V4.34375C18.5 4 18.1562 3.75 17.8125 3.875L13.5 5.4375V16.4062Z" fill="#D4D4D4"/>
</svg>
