<svg width="20" height="20" viewBox="0 0 20 20" fill="none" xmlns="http://www.w3.org/2000/svg">
<path d="M13.6875 3.5H10.25V7.5H16.4375C16.4062 7.4375 16.375 7.375 16.3438 7.34375L15.0625 4.40625C14.8125 3.875 14.2812 3.5 13.6875 3.5ZM16.5 8H3.5V15C3.5 15.8438 4.15625 16.5 5 16.5H15C15.8125 16.5 16.5 15.8438 16.5 15V8ZM3.5625 7.5H9.75V3.5H6.28125C5.6875 3.5 5.15625 3.875 4.90625 4.40625L3.625 7.34375C3.59375 7.375 3.5625 7.4375 3.53125 7.5H3.5625ZM13.6875 3C14.4688 3 15.1875 3.46875 15.5 4.1875L16.8125 7.125C16.9375 7.375 17 7.65625 17 7.9375V15C17 16.125 16.0938 17 15 17H5C3.875 17 3 16.125 3 15V7.9375C3 7.65625 3.03125 7.375 3.15625 7.125L4.46875 4.1875C4.78125 3.46875 5.5 3 6.28125 3H13.6875Z" fill="#D4D4D4"/>
</svg>
