<svg width="20" height="20" viewBox="0 0 20 20" fill="none" xmlns="http://www.w3.org/2000/svg">
<path d="M3.25 4C3.09375 4 3 4.125 3 4.25V5.75C3 5.90625 3.09375 6 3.25 6H4.75C4.875 6 5 5.90625 5 5.75V4.25C5 4.125 4.875 4 4.75 4H3.25ZM2.5 4.25C2.5 3.84375 2.8125 3.5 3.25 3.5H4.75C5.15625 3.5 5.5 3.84375 5.5 4.25V5.75C5.5 6.1875 5.15625 6.5 4.75 6.5H3.25C2.8125 6.5 2.5 6.1875 2.5 5.75V4.25ZM7.5 4.75H17.5C17.625 4.75 17.75 4.875 17.75 5C17.75 5.15625 17.625 5.25 17.5 5.25H7.5C7.34375 5.25 7.25 5.15625 7.25 5C7.25 4.875 7.34375 4.75 7.5 4.75ZM7.5 9.75H17.5C17.625 9.75 17.75 9.875 17.75 10C17.75 10.1562 17.625 10.25 17.5 10.25H7.5C7.34375 10.25 7.25 10.1562 7.25 10C7.25 9.875 7.34375 9.75 7.5 9.75ZM7.5 14.75H17.5C17.625 14.75 17.75 14.875 17.75 15C17.75 15.1562 17.625 15.25 17.5 15.25H7.5C7.34375 15.25 7.25 15.1562 7.25 15C7.25 14.875 7.34375 14.75 7.5 14.75ZM4.75 9H3.25C3.09375 9 3 9.125 3 9.25V10.75C3 10.9062 3.09375 11 3.25 11H4.75C4.875 11 5 10.9062 5 10.75V9.25C5 9.125 4.875 9 4.75 9ZM3.25 8.5H4.75C5.15625 8.5 5.5 8.84375 5.5 9.25V10.75C5.5 11.1875 5.15625 11.5 4.75 11.5H3.25C2.8125 11.5 2.5 11.1875 2.5 10.75V9.25C2.5 8.84375 2.8125 8.5 3.25 8.5ZM3.25 14C3.09375 14 3 14.125 3 14.25V15.75C3 15.9062 3.09375 16 3.25 16H4.75C4.875 16 5 15.9062 5 15.75V14.25C5 14.125 4.875 14 4.75 14H3.25ZM2.5 14.25C2.5 13.8438 2.8125 13.5 3.25 13.5H4.75C5.15625 13.5 5.5 13.8438 5.5 14.25V15.75C5.5 16.1875 5.15625 16.5 4.75 16.5H3.25C2.8125 16.5 2.5 16.1875 2.5 15.75V14.25Z" fill="#D4D4D4"/>
</svg>
