<svg width="20" height="20" viewBox="0 0 20 20" fill="none" xmlns="http://www.w3.org/2000/svg">
<path d="M16.5 4.5C16.5 3.8125 16.0938 3.15625 15.5 2.78125C14.875 2.4375 14.0938 2.4375 13.5 2.78125C12.875 3.15625 12.5 3.8125 12.5 4.5C12.5 5.21875 12.875 5.875 13.5 6.25C14.0938 6.59375 14.875 6.59375 15.5 6.25C16.0938 5.875 16.5 5.21875 16.5 4.5ZM17 4.5C17 5.90625 15.875 7 14.5 7C14.4062 7 14.3438 7 14.2812 7L13.1875 13.125C13.0312 13.0625 12.8438 13.0312 12.6875 13.0312L13.7812 6.90625C13.125 6.71875 12.5938 6.28125 12.2812 5.6875L6.875 7.8125C6.9375 8.03125 7 8.28125 7 8.5C7 9.0625 6.8125 9.5625 6.53125 9.96875L10.7812 13.6875C10.6562 13.8125 10.5625 13.9375 10.4375 14.0625L6.1875 10.3438C5.75 10.75 5.15625 11 4.5 11C3.09375 11 2 9.90625 2 8.5C2 7.125 3.09375 6 4.5 6C5.4375 6 6.28125 6.5625 6.6875 7.34375L12.0938 5.21875C12.0312 5 12 4.75 12 4.5C12 3.125 13.0938 2 14.5 2C15.875 2 17 3.125 17 4.5ZM14.5 15.5C14.5 14.8125 14.0938 14.1562 13.5 13.7812C12.875 13.4375 12.0938 13.4375 11.5 13.7812C10.875 14.1562 10.5 14.8125 10.5 15.5C10.5 16.2188 10.875 16.875 11.5 17.25C12.0938 17.5938 12.875 17.5938 13.5 17.25C14.0938 16.875 14.5 16.2188 14.5 15.5ZM10 15.5C10 14.625 10.4688 13.8125 11.25 13.3438C12 12.9062 12.9688 12.9062 13.75 13.3438C14.5 13.8125 15 14.625 15 15.5C15 16.4062 14.5 17.2188 13.75 17.6875C12.9688 18.125 12 18.125 11.25 17.6875C10.4688 17.2188 10 16.4062 10 15.5ZM4.5 10.5C5.1875 10.5 5.84375 10.125 6.21875 9.5C6.5625 8.90625 6.5625 8.125 6.21875 7.5C5.84375 6.90625 5.1875 6.5 4.5 6.5C3.78125 6.5 3.125 6.90625 2.75 7.5C2.40625 8.125 2.40625 8.90625 2.75 9.5C3.125 10.125 3.78125 10.5 4.5 10.5Z" fill="#D4D4D4"/>
</svg>
