<svg width="20" height="20" viewBox="0 0 20 20" fill="none" xmlns="http://www.w3.org/2000/svg">
<path d="M6.75 3.5C6.03125 3.5 5.5 4.0625 5.5 4.75V15.25C5.5 15.75 5.28125 16.1875 4.96875 16.5H15.75C16.6875 16.5 17.5 15.7188 17.5 14.75V4.75C17.5 4.0625 16.9375 3.5 16.25 3.5H6.75ZM3.75 17C2.78125 17 2 16.2188 2 15.25V8C2 6.90625 2.875 6 4 6V6.5C3.15625 6.5 2.5 7.1875 2.5 8V15.25C2.5 15.9688 3.03125 16.5 3.75 16.5C4.4375 16.5 5 15.9688 5 15.25V4.75C5 3.8125 5.78125 3 6.75 3H16.25C17.1875 3 18 3.8125 18 4.75V14.75C18 16 16.9688 17 15.75 17H3.75ZM13 5.25C13 5.125 13.0938 5 13.25 5H15.75C15.875 5 16 5.125 16 5.25C16 5.40625 15.875 5.5 15.75 5.5H13.25C13.0938 5.5 13 5.40625 13 5.25ZM13 7.25C13 7.125 13.0938 7 13.25 7H15.75C15.875 7 16 7.125 16 7.25C16 7.40625 15.875 7.5 15.75 7.5H13.25C13.0938 7.5 13 7.40625 13 7.25ZM13 9.25C13 9.125 13.0938 9 13.25 9H15.75C15.875 9 16 9.125 16 9.25C16 9.40625 15.875 9.5 15.75 9.5H13.25C13.0938 9.5 13 9.40625 13 9.25ZM7 11.25C7 11.125 7.09375 11 7.25 11H15.75C15.875 11 16 11.125 16 11.25C16 11.4062 15.875 11.5 15.75 11.5H7.25C7.09375 11.5 7 11.4062 7 11.25ZM7 13.25C7 13.125 7.09375 13 7.25 13H15.75C15.875 13 16 13.125 16 13.25C16 13.4062 15.875 13.5 15.75 13.5H7.25C7.09375 13.5 7 13.4062 7 13.25ZM7.75 5.5C7.59375 5.5 7.5 5.625 7.5 5.75V8.75C7.5 8.90625 7.59375 9 7.75 9H11.25C11.375 9 11.5 8.90625 11.5 8.75V5.75C11.5 5.625 11.375 5.5 11.25 5.5H7.75ZM7 5.75C7 5.34375 7.3125 5 7.75 5H11.25C11.6562 5 12 5.34375 12 5.75V8.75C12 9.1875 11.6562 9.5 11.25 9.5H7.75C7.3125 9.5 7 9.1875 7 8.75V5.75Z" fill="#D4D4D4"/>
</svg>
