<svg width="20" height="20" viewBox="0 0 20 20" fill="none" xmlns="http://www.w3.org/2000/svg">
<path d="M6.75 2C6.875 2 7 2.125 7 2.25V4H13V2.25C13 2.125 13.0938 2 13.25 2C13.375 2 13.5 2.125 13.5 2.25V4H15C16.0938 4 17 4.90625 17 6V7.5V8V16C17 17.125 16.0938 18 15 18H5C3.875 18 3 17.125 3 16V8V7.5V6C3 4.90625 3.875 4 5 4H6.5V2.25C6.5 2.125 6.59375 2 6.75 2ZM16.5 8H3.5V16C3.5 16.8438 4.15625 17.5 5 17.5H15C15.8125 17.5 16.5 16.8438 16.5 16V8ZM6.5 5.75V4.5H5C4.15625 4.5 3.5 5.1875 3.5 6V7.5H16.5V6C16.5 5.1875 15.8125 4.5 15 4.5H13.5V5.75C13.5 5.90625 13.375 6 13.25 6C13.0938 6 13 5.90625 13 5.75V4.5H7V5.75C7 5.90625 6.875 6 6.75 6C6.59375 6 6.5 5.90625 6.5 5.75Z" fill="#D4D4D4"/>
</svg>
