<svg width="20" height="20" viewBox="0 0 20 20" fill="none" xmlns="http://www.w3.org/2000/svg">
<path d="M4.5 3.5C3.9375 3.5 3.5 3.96875 3.5 4.5V7.5C3.5 8.0625 3.9375 8.5 4.5 8.5H7.5C8.03125 8.5 8.5 8.0625 8.5 7.5V4.5C8.5 3.96875 8.03125 3.5 7.5 3.5H4.5ZM3 4.5C3 3.6875 3.65625 3 4.5 3H7.5C8.3125 3 9 3.6875 9 4.5V7.5C9 8.34375 8.3125 9 7.5 9H4.5C3.65625 9 3 8.34375 3 7.5V4.5ZM4.5 11.5C3.9375 11.5 3.5 11.9688 3.5 12.5V15.5C3.5 16.0625 3.9375 16.5 4.5 16.5H7.5C8.03125 16.5 8.5 16.0625 8.5 15.5V12.5C8.5 11.9688 8.03125 11.5 7.5 11.5H4.5ZM3 12.5C3 11.6875 3.65625 11 4.5 11H7.5C8.3125 11 9 11.6875 9 12.5V15.5C9 16.3438 8.3125 17 7.5 17H4.5C3.65625 17 3 16.3438 3 15.5V12.5ZM15.5 3.5H12.5C11.9375 3.5 11.5 3.96875 11.5 4.5V7.5C11.5 8.0625 11.9375 8.5 12.5 8.5H15.5C16.0312 8.5 16.5 8.0625 16.5 7.5V4.5C16.5 3.96875 16.0312 3.5 15.5 3.5ZM12.5 3H15.5C16.3125 3 17 3.6875 17 4.5V7.5C17 8.34375 16.3125 9 15.5 9H12.5C11.6562 9 11 8.34375 11 7.5V4.5C11 3.6875 11.6562 3 12.5 3ZM12.5 11.5C11.9375 11.5 11.5 11.9688 11.5 12.5V15.5C11.5 16.0625 11.9375 16.5 12.5 16.5H15.5C16.0312 16.5 16.5 16.0625 16.5 15.5V12.5C16.5 11.9688 16.0312 11.5 15.5 11.5H12.5ZM11 12.5C11 11.6875 11.6562 11 12.5 11H15.5C16.3125 11 17 11.6875 17 12.5V15.5C17 16.3438 16.3125 17 15.5 17H12.5C11.6562 17 11 16.3438 11 15.5V12.5Z" fill="#D4D4D4"/>
</svg>
