<svg width="20" height="20" viewBox="0 0 20 20" fill="none" xmlns="http://www.w3.org/2000/svg">
<path d="M5.96875 12.4062L7.53125 14C7.6875 14.1562 7.90625 14.1875 8.0625 14.0938C9.40625 13.5625 12.4688 12.2188 14.0625 11.125C17.5938 8.71875 17.7188 5.15625 17.3438 2.96875C17.3125 2.8125 17.1875 2.6875 17.0312 2.6875C14.8438 2.28125 11.2812 2.40625 8.875 5.9375C7.8125 7.53125 6.4375 10.5625 5.84375 11.875C5.78125 12.0625 5.8125 12.2812 5.96875 12.4062ZM7.1875 14.3438L5.59375 12.7812C5.3125 12.4688 5.21875 12.0625 5.40625 11.6875C5.46875 11.5 5.5625 11.25 5.6875 11H2.78125C2.25 11 1.875 10.4375 2.125 9.9375L3.59375 6.96875C3.90625 6.375 4.5 6 5.15625 6H8.21875C8.3125 5.875 8.375 5.78125 8.46875 5.65625C11.0312 1.875 14.8438 1.75 17.0938 2.1875C17.4688 2.25 17.75 2.53125 17.8125 2.90625C18.25 5.15625 18.125 8.96875 14.3438 11.5312C14.2188 11.625 14.125 11.6875 14 11.7812V14.8438C14 15.5 13.625 16.0938 13.0312 16.4062L10.0625 17.875C9.5625 18.125 9 17.75 9 17.2188V14.25C8.71875 14.375 8.46875 14.4688 8.28125 14.5625C7.90625 14.7188 7.46875 14.625 7.1875 14.3438ZM2.78125 10.5H5.90625C6.46875 9.3125 7.21875 7.75 7.9375 6.5H5.15625C4.6875 6.5 4.25 6.78125 4.03125 7.21875L2.5625 10.1562C2.5 10.3125 2.59375 10.5 2.78125 10.5ZM9.5 14.0312V17.2188C9.5 17.375 9.6875 17.5 9.84375 17.4375L12.7812 15.9688C13.2188 15.75 13.5 15.3125 13.5 14.8438V12.0625C12.25 12.7812 10.6875 13.5 9.5 14.0312ZM12.25 6.5C12.25 6.96875 12.4688 7.375 12.875 7.59375C13.25 7.8125 13.7188 7.8125 14.125 7.59375C14.5 7.375 14.75 6.96875 14.75 6.5C14.75 6.0625 14.5 5.65625 14.125 5.4375C13.7188 5.21875 13.25 5.21875 12.875 5.4375C12.4688 5.65625 12.25 6.0625 12.25 6.5ZM13.5 8.25C12.8438 8.25 12.2812 7.9375 11.9688 7.375C11.6562 6.84375 11.6562 6.1875 11.9688 5.625C12.2812 5.09375 12.8438 4.75 13.5 4.75C14.125 4.75 14.6875 5.09375 15 5.625C15.3125 6.1875 15.3125 6.84375 15 7.375C14.6875 7.9375 14.125 8.25 13.5 8.25Z" fill="#D4D4D4"/>
</svg>
