<svg width="109" height="37" viewBox="0 0 109 37" fill="none" xmlns="http://www.w3.org/2000/svg">
<path d="M92.7828 34.0124V36.2787H108.379V26.0572H106.106V34.0124H92.7828ZM92.7828 0.279297V2.54573H106.106V10.5014H108.379V0.279297H92.7828ZM84.74 17.8127V12.5462H88.3048C90.043 12.5462 90.6667 13.1239 90.6667 14.7019V15.635C90.6667 17.2572 90.065 17.8127 88.3048 17.8127H84.74ZM90.3989 18.7459C92.0251 18.3237 93.1612 16.8124 93.1612 15.0127C93.1612 13.8795 92.7159 12.8571 91.8694 12.0348C90.7998 11.0123 89.3736 10.5014 87.5246 10.5014H82.5118V26.0567H84.74V19.857H88.0821C89.7974 19.857 90.4883 20.5681 90.4883 22.3461V26.0572H92.7608V22.7016C92.7608 20.2572 92.1816 19.3241 90.3989 19.0573V18.7459ZM71.6396 19.2568H78.5019V17.2125H71.6396V12.5457H79.1702V10.5014H69.3668V26.0567H79.5044V24.0124H71.6396V19.2568ZM64.1754 20.0792V21.1457C64.1754 23.3901 63.3509 24.1237 61.2792 24.1237H60.7891C58.7168 24.1237 57.7143 23.4568 57.7143 20.368V16.1901C57.7143 13.0792 58.7616 12.4344 60.8334 12.4344H61.2786C63.3064 12.4344 63.9524 13.19 63.9744 15.279H66.4254C66.2026 12.2123 64.1529 10.2793 61.0781 10.2793C59.5856 10.2793 58.3378 10.7461 57.4022 11.6346C55.9985 12.9459 55.2188 15.1682 55.2188 18.279C55.2188 21.2791 55.8874 23.5014 57.2685 24.8788C58.2041 25.7899 59.4965 26.2788 60.7665 26.2788C62.1031 26.2788 63.3289 25.7453 63.9524 24.59H64.264V26.0567H66.3137V18.0349H60.2759V20.0792H64.1754ZM44.5251 12.5457H46.9538C49.2489 12.5457 50.4967 13.1233 50.4967 16.2347V20.3233C50.4967 23.4342 49.2489 24.0124 46.9538 24.0124H44.5251V12.5457ZM47.154 26.0572C51.4097 26.0572 52.9911 22.835 52.9911 18.2796C52.9911 13.6574 51.2981 10.5019 47.1092 10.5019H42.2966V26.0572H47.154ZM31.536 19.2568H38.3984V17.2125H31.536V12.5457H39.0664V10.5014H29.263V26.0567H39.4009V24.0124H31.536V19.2568ZM18.3909 10.5014H16.1185V26.0567H26.3673V24.0124H18.3909V10.5014ZM0.5 26.0572V36.2793H16.0959V34.0124H2.77235V26.0572H0.5ZM0.5 0.279297V10.5014H2.77235V2.54573H16.0959V0.279297H0.5Z" fill="white"/>
</svg>
