<svg width="57" height="23" viewBox="0 0 57 23" fill="none" xmlns="http://www.w3.org/2000/svg">
<g clip-path="url(#clip0_1648_15601)">
<path d="M3.3997 8.31329C3.30253 8.06172 3.20797 7.81641 3.10992 7.5615C3.14827 7.54144 3.18182 7.51929 3.2193 7.50508C3.36397 7.44992 3.50864 7.39476 3.65549 7.34544C3.73 7.32037 3.80887 7.30616 3.886 7.28903C3.99363 7.26479 4.10126 7.24181 4.20933 7.21966C4.24332 7.21297 4.27818 7.21005 4.3126 7.20837C4.41326 7.2042 4.51436 7.21172 4.61153 7.17452C4.63593 7.16533 4.66643 7.16951 4.69432 7.16909C4.79193 7.16867 4.88954 7.16826 4.98715 7.16909C5.08432 7.16993 5.18193 7.1599 5.27605 7.19709C5.30045 7.2067 5.33096 7.20503 5.35885 7.20461C5.53707 7.20294 5.70788 7.24473 5.88044 7.28109C6.34278 7.37846 6.77068 7.55314 7.17376 7.78674C7.48445 7.96686 7.76856 8.18166 8.01432 8.43825C8.16466 8.59496 8.30541 8.76044 8.4431 8.9276C8.50934 9.00784 8.55814 9.10103 8.6222 9.19965C8.58647 9.22682 8.55553 9.25774 8.51805 9.2778C8.20911 9.44329 7.89928 9.6071 7.58903 9.77008C7.55678 9.78722 7.52018 9.79641 7.47835 9.81229C7.39555 9.70573 7.31843 9.60334 7.23825 9.50388C7.09053 9.32126 6.91666 9.16455 6.72755 9.02121C6.5271 8.86952 6.31009 8.7454 6.07609 8.6497C5.92053 8.58618 5.76453 8.52266 5.59415 8.49633C5.4887 8.48004 5.38717 8.43866 5.28172 8.42362C5.1828 8.40941 5.0804 8.41025 4.97974 8.41317C4.95055 8.41401 4.91961 8.44159 4.8939 8.46207C4.85119 8.49592 4.8172 8.5423 4.77058 8.56821C4.54181 8.69651 4.24419 8.63717 4.11172 8.38977C3.97794 8.14029 4.15137 7.84107 4.39235 7.78424C4.59628 7.73618 4.77276 7.78131 4.89128 7.94972C4.94314 8.02286 5.00066 8.04751 5.08911 8.04751C5.17104 8.04751 5.25339 8.0659 5.33531 8.07885C5.42726 8.09306 5.52007 8.10644 5.61071 8.12649C5.73534 8.15408 5.86214 8.17748 5.98067 8.22094C6.15497 8.28488 6.32752 8.35676 6.4918 8.44075C6.8099 8.60332 7.09184 8.81435 7.33673 9.06844C7.41865 9.15327 7.49926 9.23977 7.58816 9.3338C7.74459 9.24813 7.89972 9.16288 8.06661 9.07178C7.74634 8.66433 7.36941 8.33837 6.92494 8.08136C6.19767 7.66054 5.4046 7.49213 4.56403 7.54812C4.22894 7.57027 3.8921 7.62418 3.56964 7.76125C3.67466 8.01575 3.77619 8.26148 3.87729 8.50595C3.81802 8.58242 3.72869 8.59078 3.65462 8.61961C3.34262 8.74122 3.05981 8.90587 2.81318 9.1261C2.73953 9.19213 2.66546 9.25774 2.59399 9.32544C2.37132 9.53648 2.2114 9.79014 2.06717 10.053C2.00921 10.1583 1.9713 10.2732 1.92686 10.3848C1.91901 10.4045 1.92555 10.4291 1.92555 10.4596C2.10726 10.4813 2.2833 10.4663 2.45542 10.4696C3.02234 9.29076 3.96836 8.7571 5.31048 8.87871C5.79503 8.97441 6.2382 9.15536 6.60946 9.47547C6.79204 9.63301 6.96067 9.80393 7.08007 10.0292C7.0012 10.0756 6.93279 10.1186 6.86132 10.1575C6.61076 10.2937 6.35933 10.4287 6.10834 10.5637C6.07217 10.5829 6.03513 10.6004 5.98372 10.6259C5.97195 10.6084 5.96018 10.5921 5.94973 10.575C5.79591 10.3259 5.55363 10.1888 5.27954 10.0986C5.10742 10.0417 4.92353 10.0221 4.74443 10.0513C4.49736 10.0919 4.26511 10.1688 4.06509 10.3296C3.88862 10.4713 3.76138 10.6431 3.67728 10.8412C3.59317 11.0397 3.57139 11.249 3.59971 11.4676C3.63501 11.7384 3.76443 11.9607 3.94221 12.16C4.03895 12.2687 4.16663 12.3485 4.3004 12.4137C4.53571 12.5282 4.78714 12.5804 5.04815 12.5478C5.25557 12.5219 5.45297 12.4551 5.62683 12.3364C5.65908 12.3142 5.67259 12.2896 5.66997 12.2524C5.66649 12.1993 5.6691 12.1454 5.66257 12.0923C5.63947 11.9035 5.86955 11.6619 6.10006 11.6707C6.31314 11.6786 6.47176 11.7664 6.54845 11.9498C6.64606 12.183 6.52405 12.4012 6.33014 12.5019C6.25127 12.5428 6.16673 12.5587 6.07784 12.5495C6.00463 12.542 5.94493 12.5641 5.88524 12.6064C5.70135 12.7359 5.49436 12.8291 5.27213 12.8655C5.07299 12.8976 4.87385 12.929 4.66208 12.8905C4.43331 12.8492 4.21892 12.7877 4.01891 12.6782C3.77837 12.547 3.59187 12.3619 3.44458 12.1391C3.35656 12.0063 3.28728 11.8638 3.2498 11.7121C3.19359 11.4851 3.16439 11.2574 3.21581 11.0204C3.25459 10.8424 3.30819 10.6748 3.39534 10.5144C3.53217 10.2632 3.72521 10.0647 3.97489 9.91301C4.10823 9.83193 4.25029 9.77008 4.39845 9.72453C4.49954 9.69361 4.60804 9.68149 4.71393 9.67104C4.8037 9.66268 4.8952 9.6723 4.98541 9.66854C5.16624 9.66101 5.33444 9.71116 5.50047 9.76883C5.70222 9.83904 5.87739 9.95062 6.0347 10.0898C6.06433 10.1161 6.09527 10.1408 6.13623 10.1194C6.25519 10.0572 6.37241 9.99282 6.49006 9.92847C6.49834 9.92387 6.50357 9.91384 6.51926 9.89671C6.48396 9.85951 6.45128 9.81689 6.41032 9.78429C6.24952 9.65725 6.08655 9.53272 5.897 9.44538C5.74667 9.37601 5.59372 9.31667 5.42944 9.2824C5.23291 9.24144 5.03639 9.20091 4.8342 9.2101C4.77232 9.21303 4.71132 9.22724 4.64944 9.23643C4.62896 9.23936 4.60848 9.24521 4.588 9.24646C4.28297 9.26694 4.01063 9.37893 3.75222 9.52561C3.45068 9.69695 3.20666 9.92721 3.02626 10.2151C2.92299 10.3802 2.83671 10.5545 2.79008 10.7438C2.77396 10.809 2.75086 10.832 2.68376 10.832C2.28635 10.8332 1.88938 10.832 1.49197 10.8307C1.48195 10.8307 1.47193 10.8261 1.44883 10.8203C1.44709 10.7852 1.4362 10.7455 1.44448 10.7095C1.55734 10.206 1.76345 9.74125 2.08808 9.32879C2.2942 9.06676 2.53647 8.83901 2.81884 8.65054C2.98181 8.54188 3.14827 8.44034 3.32867 8.3601C3.35002 8.35049 3.36833 8.33377 3.39926 8.31288L3.3997 8.31329Z" fill="#EDEDED"/>
<path d="M22.4461 12.7444C22.4461 12.9956 22.4461 13.225 22.4461 13.454C22.4461 13.6797 22.4474 13.9058 22.4448 14.1385H21.5205C21.5149 14.0943 21.5057 14.0529 21.5057 14.0115C21.5044 13.6943 21.5048 13.3776 21.5048 13.0604C21.5048 12.0992 21.5048 11.138 21.5053 10.1765C21.5053 10.1242 21.4926 10.0686 21.5441 10.0139C21.8303 10.0051 22.1245 10.0085 22.4225 10.0114C22.4696 10.1376 22.4291 10.26 22.457 10.3934C22.4931 10.3633 22.5223 10.3424 22.5476 10.3181C22.7127 10.1585 22.9062 10.0519 23.1341 9.9905C23.3485 9.93241 23.5668 9.93158 23.7756 9.96584C24.1677 10.0298 24.4828 10.2291 24.7072 10.5505C24.8506 10.7557 24.9307 10.9805 24.9769 11.2233C25.0105 11.4001 25.0205 11.5752 25.0031 11.7507C24.9643 12.1435 24.8349 12.5037 24.5429 12.7946C24.3795 12.9576 24.1882 13.0804 23.9568 13.1414C23.8061 13.1811 23.6553 13.2221 23.498 13.2146C23.1054 13.1962 22.7598 13.0733 22.4944 12.7816C22.4879 12.7745 22.4788 12.7691 22.4465 12.7444H22.4461ZM23.2444 10.716C23.1402 10.7022 23.0278 10.731 22.9245 10.777C22.6164 10.9149 22.4866 11.1715 22.4478 11.4782C22.4313 11.6111 22.4461 11.7448 22.4901 11.8735C22.5602 12.0791 22.6696 12.2572 22.8827 12.3525C23.0409 12.4235 23.2038 12.4523 23.3842 12.4243C23.6479 12.383 23.8431 12.2597 23.966 12.0374C24.0928 11.8084 24.1215 11.5689 24.0523 11.3119C23.9612 10.9746 23.6444 10.7038 23.2435 10.7156L23.2444 10.716Z" fill="#EDEDED"/>
<path d="M2.986 14.0628C2.92499 14.0198 2.86529 13.9759 2.80342 13.9345C2.29359 13.5944 1.92581 13.1422 1.67395 12.6031C1.599 12.4431 1.54017 12.2751 1.48875 12.1067C1.4552 11.9963 1.45999 11.8751 1.42557 11.7652C1.38722 11.6428 1.39855 11.5212 1.39463 11.3983C1.39376 11.372 1.39899 11.3457 1.40204 11.3093C1.43341 11.3047 1.46304 11.2968 1.49267 11.2968C1.86219 11.2959 2.23171 11.2959 2.60079 11.2968C2.62781 11.2968 2.65483 11.3022 2.68969 11.306C2.70712 11.4067 2.72629 11.5045 2.7411 11.6027C2.77161 11.8079 2.83784 12.003 2.93153 12.189C3.08186 12.489 3.30758 12.7331 3.57557 12.9391C3.76861 13.0875 3.98736 13.1953 4.22702 13.2638C4.36341 13.3027 4.49806 13.3382 4.64229 13.3474C4.73075 13.3528 4.81877 13.3796 4.90985 13.3746C5.07892 13.3645 5.24581 13.3424 5.41183 13.3077C5.62797 13.2621 5.8258 13.179 6.01753 13.0778C6.23105 12.9654 6.40186 12.8033 6.56396 12.6332C6.64589 12.5475 6.71735 12.4527 6.79361 12.362C6.81322 12.339 6.83326 12.3164 6.85636 12.2897C6.96268 12.3411 7.04591 12.4025 7.12914 12.4811C7.08251 12.558 7.04547 12.6382 6.991 12.7051C6.86071 12.8647 6.72781 13.0198 6.5583 13.1485C6.3243 13.3261 6.07418 13.4719 5.7966 13.5731C5.66457 13.6211 5.526 13.6499 5.3883 13.6813C5.13557 13.739 4.88196 13.708 4.62922 13.7151C4.57519 13.7168 4.52072 13.6984 4.46669 13.6888C4.44969 13.6859 4.43313 13.68 4.4157 13.6784C4.22702 13.6616 4.05359 13.5965 3.87973 13.5296C3.67144 13.4494 3.48145 13.3382 3.30453 13.2099C3.13851 13.0891 2.98818 12.9491 2.8666 12.7849C2.79034 12.6821 2.7106 12.5801 2.64611 12.4706C2.55765 12.321 2.47486 12.1677 2.43521 11.9963C2.41124 11.8935 2.3742 11.7932 2.34021 11.6821C2.1633 11.6641 1.98507 11.6733 1.79203 11.6762C1.86176 12.1718 2.03824 12.6106 2.33847 13.0022C2.63783 13.3929 3.01955 13.6905 3.48101 13.8982C3.47273 13.9249 3.47012 13.9446 3.4614 13.9613C3.36118 14.1548 3.26009 14.3474 3.15856 14.5405C3.11934 14.6149 3.12892 14.6466 3.21128 14.6784C3.41957 14.759 3.62568 14.8464 3.84792 14.8886C3.90195 14.8986 3.9538 14.9191 4.0074 14.9308C4.12593 14.9559 4.24532 14.9793 4.36428 15.0018C4.40176 15.009 4.44011 15.0123 4.47802 15.0152C4.58913 15.0236 4.69981 15.0307 4.81093 15.0382C4.8179 15.0386 4.82487 15.0399 4.83185 15.0395C5.03927 15.0236 5.24756 15.0119 5.4541 14.9897C5.57786 14.9764 5.70117 14.9534 5.82144 14.9233C5.97526 14.8853 6.12865 14.8426 6.27724 14.7896C6.48814 14.7139 6.69818 14.6337 6.88642 14.5121C7.06465 14.3971 7.24243 14.2797 7.41281 14.1548C7.62895 13.996 7.81109 13.8025 7.98539 13.6027C8.01372 13.5705 8.03507 13.5325 8.06426 13.4907C7.92264 13.3825 7.77623 13.2977 7.61587 13.2112C6.9836 14.0018 6.15392 14.4561 5.12642 14.5488C4.69502 14.5877 4.2597 14.5668 3.82657 14.4101C3.90239 14.3019 3.93027 14.1828 4.0244 14.1046C4.19565 14.1381 4.35644 14.1719 4.52246 14.1895C4.65406 14.2032 4.78391 14.2225 4.91638 14.2137C4.9848 14.2091 5.05277 14.1961 5.12075 14.1874C5.13818 14.1853 5.15518 14.1828 5.17261 14.1819C5.53341 14.1569 5.86981 14.0557 6.1927 13.899C6.38269 13.8067 6.5644 13.7034 6.73217 13.5802C6.84764 13.4957 6.95353 13.3963 7.0507 13.2922C7.18971 13.1435 7.31695 12.9851 7.44898 12.8305C7.52698 12.7389 7.54397 12.7381 7.64638 12.802C7.92003 12.9721 8.19586 13.1393 8.46951 13.3094C8.51178 13.3357 8.54838 13.3708 8.59283 13.4059C8.55274 13.4728 8.52355 13.5329 8.48346 13.586C8.25251 13.8919 7.99323 14.1744 7.69082 14.4176C7.41586 14.6387 7.11781 14.8276 6.79186 14.9722C6.59752 15.0587 6.39925 15.1393 6.19706 15.2075C6.06111 15.2534 5.91208 15.263 5.77482 15.3061C5.59659 15.3617 5.41619 15.3403 5.23666 15.3424C4.90549 15.3462 4.57432 15.3424 4.24358 15.3437C4.1098 15.3441 3.98474 15.3044 3.8575 15.2756C3.7904 15.2605 3.72416 15.2413 3.65706 15.225C3.3699 15.1544 3.09929 15.0453 2.84089 14.9082C2.76551 14.8681 2.68969 14.8284 2.62432 14.7937C2.59338 14.7248 2.63565 14.6855 2.65962 14.6433C2.75897 14.4682 2.86094 14.2943 2.9616 14.1197C2.96987 14.1055 2.9751 14.0892 2.986 14.0641V14.0628Z" fill="#EDEDED"/>
<path d="M14.0225 10.2127C13.9637 10.1626 13.9118 10.1191 13.8608 10.0748C13.6926 9.92856 13.4987 9.83579 13.276 9.78648C12.8769 9.69789 12.5374 9.81197 12.2272 10.0443C12.0511 10.1764 11.9187 10.341 11.8324 10.5379C11.7692 10.682 11.7182 10.8304 11.7221 10.99C11.7226 11.0134 11.7221 11.0368 11.7221 11.0602C11.7248 11.5889 11.9867 11.97 12.4542 12.2299C12.5584 12.288 12.6721 12.3302 12.7958 12.3411C12.8573 12.3465 12.9179 12.3712 12.9793 12.372C13.2499 12.3749 13.4996 12.3035 13.7227 12.1564C13.7994 12.1058 13.8674 12.0423 13.9384 11.9842C13.9641 11.9629 13.9881 11.9399 14.0207 11.9107C14.0626 11.942 14.1018 11.9679 14.1371 11.998C14.3001 12.1376 14.4622 12.2784 14.6247 12.4184C14.711 12.4928 14.7088 12.5145 14.6221 12.5914C14.3768 12.8095 14.0926 12.9675 13.7824 13.0816C13.6992 13.1121 13.6063 13.1171 13.5209 13.1426C13.3484 13.1948 13.171 13.1932 12.9945 13.1944C12.4551 13.1986 11.9832 13.0206 11.5653 12.7005C11.2685 12.4731 11.0502 12.1877 10.9016 11.8559C10.7596 11.5391 10.7169 11.2069 10.7478 10.8613C10.7657 10.6595 10.818 10.4681 10.8938 10.2838C10.9862 10.0598 11.1252 9.85919 11.2921 9.67866C11.5261 9.42625 11.8076 9.23527 12.13 9.10029C12.2093 9.06728 12.293 9.0422 12.3758 9.01755C12.5788 8.95737 12.7889 8.91684 12.9998 8.91851C13.3571 8.92185 13.7022 8.99331 14.0264 9.14501C14.2303 9.24071 14.4195 9.35605 14.5859 9.50482C14.6012 9.51861 14.6169 9.53198 14.6312 9.54619C14.704 9.6189 14.7036 9.6423 14.6273 9.70791C14.5755 9.75221 14.5227 9.79567 14.4709 9.83997C14.3515 9.94194 14.233 10.0443 14.1136 10.1459C14.0857 10.1693 14.0547 10.1893 14.0229 10.2123L14.0225 10.2127Z" fill="#EDEDED"/>
<path d="M20.0515 10.0287C20.1229 10.0108 20.8646 9.9978 20.94 10.0124C20.9587 10.0162 20.9753 10.0291 21.0014 10.0421C20.9696 10.1265 20.9408 10.2072 20.9086 10.287C20.8118 10.5252 20.7134 10.763 20.6158 11.0008C20.5042 11.2728 20.3918 11.544 20.2815 11.8165C20.2005 12.0175 20.1242 12.2206 20.0427 12.4216C19.9634 12.6168 19.8815 12.8107 19.7987 13.0042C19.7238 13.1793 19.6549 13.3577 19.5665 13.5265C19.4314 13.7848 19.2397 13.9975 18.9577 14.1191C18.7847 14.1939 18.6004 14.2378 18.4117 14.2136C18.1965 14.186 17.9808 14.15 17.7816 14.0581C17.7485 14.0426 17.7193 14.0196 17.6823 13.9962C17.7472 13.7973 17.8095 13.6051 17.8705 13.4187C17.9315 13.402 17.9699 13.4225 18.0117 13.4409C18.1594 13.5069 18.3119 13.5449 18.4762 13.5015C18.5721 13.476 18.6462 13.4258 18.6889 13.3397C18.7991 13.1157 18.8017 13.1847 18.6989 12.9532C18.5494 12.6172 18.4065 12.2787 18.2614 11.941C18.0871 11.5361 17.9137 11.1307 17.7398 10.7254C17.6557 10.529 17.5716 10.3325 17.4901 10.1353C17.477 10.1035 17.477 10.0672 17.4688 10.0212C17.5189 10.0162 17.5555 10.0095 17.5921 10.0091C17.8291 10.0083 18.0662 10.0099 18.3032 10.0078C18.3764 10.0074 18.4244 10.0216 18.4522 10.0994C18.5268 10.3062 18.6122 10.5093 18.6937 10.7137C18.7778 10.9247 18.864 11.1349 18.9468 11.3468C19.0248 11.5453 19.0989 11.745 19.176 11.944C19.1948 11.9928 19.2179 12.0405 19.2449 12.1028C19.3251 12.0234 19.3281 11.9268 19.3651 11.8462C19.4044 11.7609 19.4362 11.6727 19.4689 11.585C19.5015 11.4976 19.5312 11.409 19.5625 11.3209C19.5939 11.2331 19.6249 11.1453 19.6571 11.058C19.688 10.9736 19.7194 10.8896 19.7517 10.8052C19.7848 10.7178 19.8196 10.6309 19.8528 10.5436C19.8859 10.4558 19.9159 10.3672 19.9499 10.2799C19.9835 10.193 20.0196 10.1073 20.0519 10.0283L20.0515 10.0287Z" fill="#EDEDED"/>
<path d="M29.6303 9.95152C30.1427 9.94316 30.534 10.0844 30.8704 10.3623C31.0835 10.5383 31.2487 10.7493 31.3559 11.0017C31.4635 11.2549 31.4975 11.5186 31.4583 11.7844C31.4195 12.0464 31.3132 12.2884 31.1471 12.5045C30.9484 12.7631 30.6935 12.9524 30.3867 13.0766C30.2569 13.1292 30.1227 13.1743 29.9784 13.1831C29.8887 13.1886 29.7993 13.2161 29.7105 13.2136C29.3096 13.2023 28.9435 13.0941 28.6167 12.8613C28.3099 12.6428 28.1056 12.359 27.9844 12.0172C27.9526 11.9273 27.9417 11.8291 27.9304 11.7339C27.9217 11.6611 27.9282 11.5872 27.9269 11.514C27.9217 11.2357 28.0206 10.9875 28.1653 10.7526C28.2821 10.5629 28.4455 10.4116 28.625 10.2817C28.8167 10.1425 29.0342 10.0481 29.2716 9.99415C29.4124 9.96197 29.5523 9.94818 29.6303 9.95194V9.95152ZM29.7763 10.7125C29.4656 10.7154 29.2721 10.7948 29.1113 10.944C28.9688 11.0765 28.8873 11.2366 28.8416 11.4259C28.8076 11.5654 28.8267 11.6946 28.8647 11.8166C28.9562 12.1112 29.1636 12.3126 29.473 12.4071C29.5479 12.4301 29.6311 12.4472 29.7083 12.4401C29.9026 12.4221 30.0869 12.372 30.2399 12.2416C30.385 12.1183 30.4883 11.9695 30.5366 11.7932C30.5859 11.6135 30.5754 11.4317 30.5018 11.2549C30.3806 10.9641 30.0686 10.7016 29.7763 10.7117V10.7125Z" fill="#EDEDED"/>
<path d="M35.7735 9.57256C35.7687 9.58551 35.7657 9.60892 35.7526 9.62647C35.7007 9.69584 35.3735 9.97583 35.3256 9.99714C35.2192 9.91607 35.1181 9.82915 35.007 9.75685C34.8462 9.65238 34.6706 9.57799 34.4763 9.54247C34.3835 9.52575 34.2924 9.51196 34.1983 9.51071C33.9455 9.50737 33.7085 9.5713 33.4902 9.68414C33.176 9.84712 32.9446 10.0928 32.7895 10.4012C32.6531 10.6725 32.606 10.9625 32.6479 11.2567C32.6967 11.6002 32.8496 11.9015 33.108 12.1531C33.2823 12.3232 33.4823 12.4502 33.7133 12.5296C33.9107 12.5973 34.115 12.6224 34.3281 12.6023C34.6946 12.5676 34.9961 12.4138 35.2593 12.1773C35.326 12.1176 35.3412 12.1163 35.4062 12.1748C35.5317 12.2885 35.6559 12.4038 35.777 12.5154C35.7661 12.5889 35.7138 12.622 35.6702 12.6575C35.4436 12.8418 35.1905 12.9855 34.9116 13.0837C34.8279 13.113 34.7347 13.1172 34.6497 13.1439C34.4876 13.1957 34.3203 13.1878 34.1547 13.1932C34.044 13.1966 33.9307 13.1915 33.8218 13.1727C33.5612 13.1276 33.315 13.0415 33.0849 12.9141C32.7659 12.7373 32.5089 12.4966 32.3058 12.2061C32.2003 12.0553 32.1284 11.886 32.0626 11.7134C31.9886 11.5191 31.9816 11.3156 31.9485 11.1159C31.9393 11.0615 31.9524 11.0034 31.9581 10.947C31.9633 10.8973 31.9768 10.848 31.979 10.7987C31.992 10.54 32.0923 10.3076 32.2117 10.0811C32.3533 9.8116 32.562 9.59387 32.8004 9.40247C32.9712 9.2654 33.1638 9.15759 33.3738 9.08362C33.5006 9.0389 33.6283 8.98708 33.7603 8.96744C33.9342 8.94112 34.1085 8.89974 34.288 8.91646C34.7874 8.96285 35.2419 9.11789 35.6306 9.42922C35.6807 9.46934 35.7221 9.5199 35.7748 9.57298L35.7735 9.57256Z" fill="#EDEDED"/>
<path d="M36.2044 11.5638C36.1652 10.7109 37.0141 9.91147 37.9714 9.94616C38.8242 9.97708 39.6308 10.6929 39.6181 11.5856C39.6055 12.4769 38.8373 13.2141 37.903 13.2116C36.9888 13.2091 36.1735 12.4611 36.2044 11.5638ZM36.8559 11.5739C36.8607 11.6537 36.852 11.7368 36.8729 11.8129C36.9557 12.1171 37.1247 12.3649 37.4128 12.5288C37.5657 12.6157 37.7339 12.6604 37.9078 12.6667C38.0577 12.6721 38.2037 12.6299 38.3383 12.5651C38.5592 12.4586 38.7222 12.2947 38.839 12.0866C38.9318 11.9216 38.9697 11.7419 38.9675 11.5592C38.9658 11.408 38.9366 11.2571 38.8643 11.1159C38.6852 10.7661 38.4102 10.5412 37.9962 10.4999C37.7522 10.4756 37.5239 10.5325 37.3295 10.6754C37.0236 10.9002 36.845 11.1919 36.8559 11.5739Z" fill="#EDEDED"/>
<path d="M52.1927 12.1593C52.2176 12.2032 52.235 12.2425 52.2603 12.2768C52.4472 12.5329 52.6355 12.7883 52.8246 13.0428C52.852 13.0796 52.8791 13.1126 52.8481 13.1669C52.8215 13.169 52.7915 13.174 52.761 13.174C52.5902 13.1748 52.4198 13.1711 52.249 13.1757C52.1701 13.1778 52.1165 13.1489 52.0738 13.0896C51.9566 12.9287 51.8385 12.7686 51.7213 12.6082C51.6459 12.5049 51.5722 12.4001 51.4942 12.2985C51.4751 12.2739 51.4419 12.2442 51.4141 12.2429C51.2964 12.2379 51.1783 12.2429 51.0602 12.245C51.0515 12.245 51.0428 12.255 51.0258 12.2659C51.0236 12.3002 51.0197 12.3395 51.0193 12.3787C51.0184 12.599 51.0193 12.8192 51.0184 13.0394C51.018 13.1548 50.9988 13.1727 50.8776 13.1736C50.7382 13.1748 50.5992 13.1753 50.4598 13.1736C50.3552 13.1723 50.3303 13.1481 50.329 13.0478C50.3273 12.8978 50.3286 12.7473 50.3286 12.5973C50.3286 11.8798 50.3286 11.1627 50.3286 10.4451C50.3286 10.3996 50.3334 10.354 50.3369 10.3001C50.3822 10.2955 50.4192 10.2884 50.4563 10.2884C50.916 10.2876 51.3757 10.2838 51.8354 10.2893C52.2289 10.2943 52.6577 10.5584 52.778 10.9299C52.8115 11.034 52.8303 11.1426 52.8512 11.25C52.8564 11.2776 52.8451 11.3089 52.8394 11.3382C52.8346 11.3641 52.825 11.3896 52.8215 11.4159C52.7797 11.7327 52.5932 11.9496 52.3091 12.1C52.276 12.1176 52.2424 12.1339 52.1927 12.1589V12.1593ZM51.0167 10.8881C51.0106 10.9157 51.0005 10.9408 51.0005 10.9658C50.9992 11.1589 50.9979 11.352 51.0005 11.545C51.0018 11.6295 51.0245 11.6499 51.1151 11.6512C51.2751 11.6537 51.4354 11.6587 51.5945 11.6491C51.6964 11.6428 51.8001 11.6332 51.8986 11.5927C52.0903 11.5141 52.1993 11.2905 52.0847 11.0874C52.0106 10.9562 51.8847 10.8898 51.7383 10.881C51.5234 10.868 51.3077 10.8747 51.092 10.8743C51.0689 10.8743 51.0454 10.8823 51.0162 10.8873L51.0167 10.8881Z" fill="#EDEDED"/>
<path d="M56.3036 11.7176C56.3036 11.7744 56.2984 11.8317 56.3045 11.8877C56.3302 12.1171 56.2339 12.3122 56.1137 12.4978C55.9442 12.759 55.7062 12.9508 55.4169 13.0795C55.3053 13.1292 55.1864 13.1652 55.0618 13.1861C54.9624 13.2032 54.8644 13.2191 54.7633 13.2203C54.5044 13.2241 54.2621 13.161 54.0338 13.0507C53.6726 12.876 53.4146 12.6073 53.2577 12.2491C53.1601 12.026 53.1235 11.7924 53.1562 11.5558C53.1906 11.3097 53.2848 11.0807 53.4394 10.8772C53.5959 10.6712 53.7937 10.5119 54.029 10.3979C54.1266 10.3506 54.2369 10.3285 54.338 10.2871C54.4439 10.2441 54.5563 10.2449 54.6661 10.2391C54.8251 10.2307 54.9824 10.2432 55.1406 10.28C55.3829 10.336 55.5929 10.4426 55.7834 10.5913C56.0012 10.761 56.1533 10.9746 56.2553 11.2249C56.2932 11.3181 56.3058 11.4104 56.3036 11.5078C56.3019 11.578 56.3036 11.6478 56.3036 11.718V11.7176ZM54.6979 12.6294C54.9842 12.6332 55.2435 12.5112 55.4034 12.3469C55.5589 12.1877 55.6478 11.9992 55.6574 11.7828C55.6622 11.6745 55.657 11.5592 55.6234 11.4568C55.5637 11.2738 55.4487 11.1204 55.2879 10.9996C55.0007 10.7844 54.5877 10.766 54.2953 10.9566C54.0996 11.084 53.9623 11.2483 53.8918 11.4702C53.8464 11.6135 53.8495 11.7556 53.8691 11.8948C53.887 12.021 53.9475 12.1401 54.0277 12.2475C54.2077 12.4886 54.4526 12.6106 54.6975 12.629L54.6979 12.6294Z" fill="#EDEDED"/>
<path d="M25.8258 10.7576H25.4222C25.3691 10.659 25.3634 10.1337 25.4131 10.0146C25.5434 10.0109 25.6802 10.0071 25.831 10.0029C25.8319 9.72126 25.8327 9.45297 25.8336 9.18969C25.9308 9.1596 26.5988 9.15709 26.7095 9.18509C26.7251 9.31631 26.7147 9.45255 26.7164 9.58795C26.7182 9.72084 26.7164 9.85415 26.7164 9.99707C26.7626 10.0017 26.7992 10.0084 26.8363 10.0088C26.9827 10.01 27.1291 10.0088 27.2751 10.0096C27.3125 10.0096 27.35 10.0142 27.3836 10.0163C27.4171 10.0957 27.4237 10.6264 27.3927 10.7468C27.1766 10.7698 26.9544 10.743 26.7247 10.7622C26.7217 10.8032 26.7169 10.8387 26.7169 10.8738C26.7164 11.2545 26.7143 11.6348 26.7186 12.0155C26.7195 12.0941 26.7365 12.1743 26.7591 12.25C26.7984 12.3816 26.9456 12.4576 27.0846 12.4255C27.1443 12.4117 27.2027 12.3908 27.2624 12.3757C27.2877 12.3695 27.3143 12.3699 27.3444 12.3665C27.4097 12.5287 27.4738 12.6821 27.5326 12.8375C27.5627 12.9169 27.5474 12.9524 27.4746 12.998C27.3226 13.0937 27.1622 13.1681 26.9774 13.1844C26.9191 13.1894 26.8602 13.217 26.8036 13.2124C26.4406 13.184 26.1269 13.0674 25.9447 12.7381C25.8776 12.6173 25.831 12.4907 25.8314 12.349C25.834 11.8617 25.8327 11.3745 25.8323 10.8868C25.8323 10.8479 25.8288 10.8086 25.8262 10.7568L25.8258 10.7576Z" fill="#EDEDED"/>
<path d="M41.8332 10.0134C42.0397 10.0067 42.2323 10.0067 42.4341 10.0134C42.472 10.1384 42.4389 10.2591 42.4602 10.3929C42.5012 10.3586 42.5369 10.3348 42.5652 10.3047C42.7334 10.1237 42.9509 10.0205 43.1901 9.96662C43.3064 9.94029 43.4324 9.94781 43.554 9.94865C43.8333 9.95074 44.0773 10.0506 44.2873 10.2211C44.4486 10.3523 44.5605 10.5203 44.6242 10.7151C44.6839 10.8973 44.7057 11.0841 44.7039 11.2755C44.7 11.8426 44.7026 12.4101 44.7026 12.9776C44.7026 13.1368 44.7022 13.1372 44.5314 13.1372C44.4128 13.1372 44.2943 13.138 44.1762 13.1372C44.0703 13.1359 44.0559 13.1234 44.0555 13.0206C44.0546 12.6203 44.0555 12.2195 44.0546 11.8192C44.0546 11.6156 44.049 11.4121 44.0516 11.2086C44.0533 11.092 44.022 10.985 43.9697 10.8826C43.852 10.6528 43.6638 10.5178 43.3932 10.4999C43.1199 10.4819 42.8759 10.5559 42.6759 10.7351C42.5774 10.8233 42.5112 10.934 42.4798 11.0674C42.4515 11.1869 42.4524 11.3047 42.4519 11.4242C42.4511 11.9449 42.4519 12.4656 42.4511 12.9859C42.4511 13.0315 42.445 13.0766 42.441 13.1326C42.2371 13.1418 42.0441 13.1368 41.8384 13.1364C41.8319 13.0875 41.8218 13.0461 41.8214 13.0051C41.8197 12.8083 41.8205 12.6115 41.8205 12.4147C41.8205 11.6704 41.8205 10.9261 41.821 10.1823C41.821 10.1304 41.8275 10.0782 41.8319 10.0147L41.8332 10.0134Z" fill="#EDEDED"/>
<path d="M48.1585 12.2476C48.1559 12.2952 48.1524 12.3341 48.1524 12.3734C48.152 12.5969 48.1524 12.8205 48.152 13.0441C48.152 13.1649 48.1419 13.1732 48.013 13.1741C47.8805 13.1749 47.7485 13.1745 47.616 13.1741C47.582 13.1741 47.548 13.1695 47.5227 13.1678C47.4752 13.121 47.4853 13.0721 47.4853 13.0265C47.4848 12.5426 47.4853 12.0591 47.4853 11.5752C47.4853 11.1915 47.4853 10.8079 47.4853 10.4243C47.4853 10.385 47.4892 10.3457 47.4918 10.2977C47.5319 10.2943 47.5654 10.2889 47.5986 10.2889C48.0548 10.2885 48.5115 10.2793 48.9673 10.2914C49.3939 10.3027 49.7839 10.5488 49.9237 10.9563C50.0854 11.4272 49.8601 11.9342 49.3677 12.1377C49.2013 12.2066 49.0291 12.2317 48.8518 12.2346C48.664 12.2375 48.4757 12.2346 48.2875 12.2359C48.247 12.2359 48.2064 12.2434 48.1585 12.248V12.2476ZM48.1681 11.6245C48.2016 11.627 48.2387 11.6324 48.2757 11.6328C48.4112 11.6341 48.5472 11.6341 48.6827 11.6333C48.7624 11.6328 48.8426 11.6366 48.9211 11.627C49.1233 11.6023 49.2867 11.4247 49.2727 11.2442C49.2614 11.0971 49.1799 10.991 49.0387 10.927C48.9551 10.8894 48.8683 10.8727 48.7764 10.8735C48.606 10.8748 48.4352 10.8735 48.2648 10.8739C48.2313 10.8739 48.1977 10.8798 48.1676 10.8823C48.1411 10.9776 48.1411 11.5288 48.1676 11.6241L48.1681 11.6245Z" fill="#EDEDED"/>
<path d="M16.1556 13.1288C16.1059 13.1322 16.0715 13.1363 16.0375 13.1363C15.8079 13.1368 15.5778 13.1372 15.3481 13.1363C15.227 13.1363 15.2152 13.1255 15.2152 13.011C15.2144 12.6741 15.2152 12.3369 15.2152 12.0001C15.2152 11.3895 15.2152 10.779 15.2152 10.1684C15.2152 10.0146 15.2209 10.0092 15.3786 10.0088C15.5943 10.0088 15.8105 10.008 16.0262 10.0092C16.0667 10.0092 16.1068 10.0171 16.1608 10.023C16.1643 10.1751 16.1678 10.3201 16.1721 10.4873C16.2061 10.4547 16.2262 10.4396 16.2406 10.4208C16.3852 10.2345 16.5691 10.0965 16.7974 10.0188C16.9408 9.97034 17.0877 9.92563 17.2428 9.96324C17.2733 10.0477 17.275 10.6081 17.2428 10.7079C17.2097 10.71 17.1722 10.7129 17.1352 10.715C16.8898 10.7297 16.6676 10.8032 16.4754 10.9541C16.3478 11.0544 16.2728 11.1873 16.2175 11.3331C16.1752 11.4447 16.166 11.56 16.166 11.6775C16.1669 12.1146 16.1665 12.5517 16.166 12.9888C16.166 13.031 16.1599 13.0736 16.156 13.128L16.1556 13.1288Z" fill="#EDEDED"/>
<path d="M2.60744 7.79565C2.67891 7.90556 2.73773 8.01296 2.74601 8.13373C2.62661 8.21857 2.51724 8.29421 2.40961 8.37277C2.20088 8.52447 2.01264 8.69873 1.84575 8.89013C1.58429 9.18976 1.36075 9.51405 1.22088 9.88514C1.16554 10.0318 1.10627 10.1777 1.05747 10.3264C1.02871 10.4142 1.02522 10.5099 0.996899 10.5981C0.95158 10.7406 0.953759 10.8877 0.943301 11.0327C0.931536 11.1986 0.941122 11.3653 0.942865 11.5321C0.942865 11.5617 0.952888 11.5914 0.952888 11.6215C0.952888 11.8768 1.01999 12.1221 1.09581 12.3629C1.17251 12.6073 1.26837 12.8485 1.40476 13.0687C1.52677 13.2655 1.67711 13.446 1.80783 13.6379C1.89673 13.7682 2.00828 13.8096 2.17256 13.7996C2.50896 13.7791 2.70723 14.1544 2.5704 14.4281C2.47846 14.612 2.25753 14.719 2.04837 14.6734C1.87233 14.635 1.67842 14.4486 1.70369 14.2743C1.7233 14.1393 1.66883 14.0411 1.57253 13.9379C1.3211 13.6696 1.12283 13.3633 0.962039 13.0369C0.871838 12.8543 0.791223 12.6675 0.74024 12.4698C0.706252 12.3382 0.662676 12.2086 0.630431 12.0766C0.607771 11.983 0.588163 11.8873 0.582934 11.7916C0.57204 11.5856 0.570297 11.3791 0.566811 11.1727C0.565503 11.1029 0.567246 11.0323 0.573783 10.9629C0.581626 10.8772 0.596006 10.792 0.607771 10.7067C0.60995 10.69 0.614308 10.6737 0.615179 10.6574C0.620408 10.5237 0.661805 10.3975 0.691872 10.2679C0.742855 10.0502 0.826519 9.84419 0.914977 9.63942C1.00779 9.42378 1.13416 9.22528 1.26445 9.02887C1.43309 8.77437 1.63746 8.54745 1.86274 8.33892C2.08497 8.13332 2.329 7.95195 2.60701 7.79565H2.60744Z" fill="#EDEDED"/>
<path d="M40.9494 13.1329C40.732 13.1387 40.5285 13.1392 40.3163 13.1329C40.3102 13.0865 40.3014 13.0514 40.3014 13.0163C40.3006 12.0547 40.3006 11.0931 40.3014 10.1316C40.3014 10.099 40.3071 10.0664 40.3097 10.0384C40.3977 10.002 40.83 9.99741 40.9463 10.0313C40.9503 10.0618 40.9581 10.0969 40.9581 10.132C40.959 11.0936 40.9586 12.0551 40.9581 13.0167C40.9581 13.0493 40.9533 13.0819 40.9494 13.1329Z" fill="#EDEDED"/>
<path d="M41.0052 9.16716C41.0265 9.35897 40.8357 9.53867 40.6283 9.54034C40.4313 9.54201 40.2418 9.38321 40.2422 9.16047C40.2426 8.92102 40.4466 8.80066 40.6239 8.78813C40.7886 8.77643 41.0374 8.96072 41.0052 9.16674V9.16716Z" fill="#EDEDED"/>
<path d="M46.0953 13.3005C45.8705 13.3009 45.7053 13.1492 45.707 12.9436C45.7084 12.7585 45.8857 12.5984 46.0888 12.5938C46.2896 12.5892 46.4653 12.7577 46.4579 12.947C46.4491 13.1572 46.3101 13.3001 46.0957 13.3005H46.0953Z" fill="#EDEDED"/>
</g>
<defs>
<clipPath id="clip0_1648_15601">
<rect width="55.7437" height="8.17574" fill="white" transform="translate(0.566406 7.16846)"/>
</clipPath>
</defs>
</svg>
