<svg width="57" height="23" viewBox="0 0 57 23" fill="none" xmlns="http://www.w3.org/2000/svg">
<path d="M20.2656 14.7398C20.3304 14.5461 20.4102 14.3576 20.5039 14.1759C21.3139 12.3769 22.1239 10.578 22.9339 8.77906C22.9961 8.62501 23.0691 8.47555 23.1526 8.3318C23.3443 8.02127 23.6526 7.79881 24.0096 7.71322C24.0471 7.70303 24.0835 7.69007 24.1209 7.67896H24.6116C24.8177 7.7134 25.0138 7.79218 25.1859 7.90977C25.358 8.02736 25.5021 8.1809 25.6079 8.35958C25.6705 8.46514 25.7228 8.57812 25.777 8.68924C26.3153 9.79058 26.8534 10.8941 27.3911 11.9998C27.836 12.9128 28.2802 13.8261 28.7239 14.7398H26.4574C26.3331 14.462 26.2041 14.1768 26.0836 13.8907C26.0715 13.8452 26.043 13.8058 26.0036 13.7797C25.9642 13.7536 25.9165 13.7427 25.8696 13.749C25.1452 13.7545 24.4209 13.749 23.6966 13.749C23.6134 13.749 23.5564 13.749 23.6031 13.6351C23.8193 13.1647 24.0321 12.6927 24.2414 12.2192C24.2523 12.1906 24.2726 12.1666 24.2992 12.151C24.3257 12.1356 24.3567 12.1295 24.3873 12.134C24.6593 12.134 24.9321 12.134 25.205 12.134C25.2985 12.134 25.3219 12.1173 25.2798 12.0238C25.1508 11.7349 25.0293 11.4432 24.906 11.1515L24.5022 10.2088C24.4733 10.2635 24.4527 10.3014 24.4358 10.3366C23.9891 11.3139 23.5427 12.2905 23.0965 13.2665C22.8741 13.7545 22.6545 14.2444 22.433 14.7333L20.2656 14.7398Z" fill="white"/>
<path d="M1.68359 8.08058C1.72771 8.05546 1.77903 8.04569 1.82939 8.0528H3.32477C3.47244 8.0528 3.48085 8.06113 3.48085 8.213C3.48085 8.95752 3.48085 9.70203 3.48085 10.4465V14.5664C3.48085 14.7738 3.48085 14.7738 3.26682 14.7738H1.85369C1.79565 14.7825 1.73633 14.7734 1.68359 14.7479V8.08058Z" fill="white"/>
<path d="M52.7929 12.4308V8.25822C52.7929 8.09987 52.7929 8.09894 52.9538 8.09894C53.4678 8.09894 53.9818 8.09894 54.4957 8.09894C54.6042 8.09894 54.634 8.13321 54.634 8.23785C54.634 9.97042 54.634 11.7021 54.634 13.4346C54.6247 13.7752 54.4942 14.1015 54.2664 14.3564C54.0382 14.6113 53.7265 14.7784 53.3864 14.8283C52.8108 14.9061 52.3585 14.6912 51.9791 14.2727C51.2117 13.4254 50.435 12.5873 49.6631 11.7456C49.3171 11.3684 48.9719 10.9912 48.6274 10.614C48.5995 10.5825 48.5731 10.5483 48.5415 10.5094C48.5256 10.5295 48.514 10.5529 48.5085 10.5779C48.5029 10.6029 48.5029 10.6288 48.5088 10.6538C48.5088 11.9768 48.5088 13.3001 48.5088 14.6236C48.5088 14.8089 48.5088 14.8089 48.3219 14.8089C47.8113 14.8089 47.3011 14.8089 46.7919 14.8089C46.6842 14.8089 46.6507 14.7755 46.6507 14.6699C46.6507 12.9411 46.6422 11.2131 46.6582 9.48426C46.663 8.88513 46.974 8.43972 47.5292 8.19432C48.0963 7.94152 48.6423 8.02301 49.1023 8.43138C49.4758 8.7666 49.7939 9.16294 50.1358 9.53241C50.717 10.1612 51.2931 10.7937 51.8724 11.4243L52.7929 12.4308Z" fill="white"/>
<path d="M33.4431 8.05311H35.0787C35.2245 8.05311 35.231 8.05959 35.231 8.2022C35.231 8.68496 35.231 9.16711 35.231 9.64864C35.231 9.80513 35.2226 9.81347 35.0665 9.81347H31.9823C31.5364 9.81251 31.1067 9.97914 30.7799 10.2797C30.4531 10.5803 30.2535 10.9925 30.2214 11.4332C30.1892 11.8739 30.327 12.3103 30.6067 12.6543C30.8866 12.9983 31.2876 13.2244 31.729 13.287C31.8371 13.3011 31.9461 13.308 32.0552 13.3073H35.0693C35.2282 13.3073 35.231 13.3073 35.231 13.4703C35.231 13.9444 35.231 14.4188 35.231 14.8936C35.231 15.0593 35.2245 15.0667 35.0637 15.0667C34.0244 15.0667 32.9842 15.0834 31.9449 15.0667C31.0495 15.0576 30.1909 14.7125 29.542 14.1011C28.8932 13.4897 28.5022 12.6574 28.4479 11.7718C28.3937 10.8862 28.6801 10.0131 29.2496 9.32846C29.819 8.64376 30.6292 8.19831 31.5169 8.08182C31.8776 8.03274 32.2402 8.05682 32.6019 8.05404C32.8823 8.05033 33.1627 8.05311 33.4431 8.05311Z" fill="url(#paint0_linear_1648_15736)"/>
<path d="M37.7106 8.05054C38.1778 8.05054 38.6526 8.05054 39.1235 8.05054C40.3105 8.06165 41.2611 8.54688 41.9694 9.48309C42.4637 10.1305 42.7056 10.9327 42.651 11.7426C42.6042 12.5519 42.2768 13.3204 41.7241 13.9182C41.1715 14.5159 40.4275 14.9064 39.6182 15.0234C39.4602 15.0444 39.3008 15.0544 39.1414 15.0531C38.1096 15.0531 37.0778 15.0531 36.0459 15.0531C35.8759 15.0531 35.875 15.0531 35.875 14.8873C35.875 14.4095 35.875 13.9307 35.875 13.4529C35.875 13.3409 35.9133 13.3075 36.0236 13.3075C37.0354 13.3112 38.0476 13.3112 39.06 13.3075C39.4806 13.3133 39.8909 13.1768 40.2228 12.9205C41.0199 12.3056 41.1087 11.0684 40.4049 10.3517C40.2328 10.1721 40.0247 10.03 39.7943 9.93431C39.5639 9.83866 39.3156 9.79158 39.0655 9.79607C38.0582 9.79607 37.0497 9.79607 36.0413 9.79607C35.8787 9.79607 35.8768 9.79607 35.8768 9.63587V8.21074C35.8768 8.05331 35.8768 8.05054 36.0423 8.05054H37.7106Z" fill="url(#paint1_linear_1648_15736)"/>
<path d="M44.0499 11.4138V8.21907C44.0499 8.05146 44.0499 8.05054 44.2171 8.05054C44.708 8.05054 45.1986 8.05054 45.6891 8.05054C45.7976 8.05054 45.8389 8.08202 45.8389 8.195C45.8389 10.3396 45.8389 12.484 45.8389 14.628C45.8389 14.7382 45.8039 14.7762 45.691 14.7753C45.1926 14.7703 44.6943 14.7703 44.1955 14.7753C44.0733 14.7753 44.0461 14.7299 44.0469 14.6178C44.0532 13.5511 44.0543 12.4831 44.0499 11.4138Z" fill="white"/>
<path d="M6.52362 10.4883C6.50359 10.5382 6.49683 10.5924 6.504 10.6457C6.504 11.9619 6.504 13.2774 6.504 14.5923C6.504 14.7998 6.504 14.7998 6.28998 14.7998H4.82263C4.65814 14.7998 4.65626 14.7998 4.65626 14.6414C4.65626 12.9333 4.65626 11.2244 4.65626 9.51501C4.65505 9.22261 4.74257 8.93661 4.90747 8.6941C5.07236 8.4516 5.30701 8.26381 5.58096 8.15509C5.85492 8.04638 6.15553 8.02176 6.4438 8.08444C6.73206 8.14711 6.99465 8.29419 7.19745 8.50658C7.94516 9.30851 8.68164 10.1197 9.42274 10.9272C9.84148 11.384 10.2611 11.8402 10.6817 12.2958C10.7041 12.3199 10.72 12.3542 10.763 12.3588C10.7976 12.3144 10.7817 12.2662 10.7817 12.2153C10.7817 10.9077 10.7817 9.59989 10.7817 8.29174C10.7817 8.07876 10.7817 8.07876 11.0014 8.07876H12.4724C12.6322 8.07876 12.6332 8.07876 12.6332 8.24174C12.6332 9.95857 12.6332 11.6754 12.6332 13.3922C12.6312 13.6856 12.5391 13.9714 12.3692 14.2116C12.1992 14.4518 11.9594 14.635 11.6817 14.7368C11.4061 14.8378 11.1063 14.8557 10.8204 14.7881C10.5344 14.7205 10.2751 14.5706 10.0751 14.3571L7.7657 11.8439L6.61054 10.5864L6.52362 10.4883Z" fill="white"/>
<path d="M13.5747 11.5569V8.23617C13.5747 8.05096 13.5747 8.05096 13.7616 8.05096C14.9177 8.05096 16.0738 8.05096 17.23 8.05096C18.1454 8.03686 19.0309 8.37416 19.7011 8.99224C20.3712 9.61033 20.7741 10.4613 20.8254 11.367C20.8689 12.122 20.6649 12.8706 20.2438 13.5013C19.8227 14.132 19.2071 14.6108 18.4889 14.8664C18.1193 15.002 17.7288 15.0732 17.3346 15.0767C16.1355 15.0767 14.9364 15.0767 13.7373 15.0767C13.5812 15.0767 13.5747 15.0702 13.5747 14.9118C13.5741 13.7944 13.5741 12.6761 13.5747 11.5569ZM15.3729 11.567C15.3729 12.0995 15.3729 12.632 15.3729 13.1635C15.3729 13.2728 15.4037 13.3107 15.5177 13.3098C16.0981 13.3052 16.6776 13.3033 17.258 13.3098C17.7245 13.3188 18.1754 13.1437 18.5117 12.8232C18.848 12.5028 19.042 12.0631 19.0511 11.6008C19.0601 11.1386 18.8834 10.6918 18.56 10.3586C18.2365 10.0255 17.7927 9.83324 17.3262 9.82428C16.7262 9.82428 16.1271 9.82428 15.5271 9.82428C15.3757 9.82428 15.3748 9.82428 15.3748 9.98263L15.3729 11.567Z" fill="white"/>
<defs>
<linearGradient id="paint0_linear_1648_15736" x1="31.8362" y1="8.05054" x2="29.9376" y2="14.2326" gradientUnits="userSpaceOnUse">
<stop stop-color="#3463F8"/>
<stop offset="1" stop-color="#214FDF"/>
</linearGradient>
<linearGradient id="paint1_linear_1648_15736" x1="39.2666" y1="8.05054" x2="35.9165" y2="14.3908" gradientUnits="userSpaceOnUse">
<stop stop-color="#3463F8"/>
<stop offset="1" stop-color="#214FDF"/>
</linearGradient>
</defs>
</svg>
