<svg width="151" height="61" viewBox="0 0 151 61" fill="none" xmlns="http://www.w3.org/2000/svg">
<path d="M18.0629 38.2256H16.2888L14.1649 36.2967V35.3076L16.3637 33.2304V29.9415L19.2372 28.0869L22.5105 30.535L18.0629 38.2256ZM10.7167 33.0326L11.0415 29.9415L9.96705 27.1719H16.3138L15.2643 29.9415L15.5642 33.0326H13.1154H10.7167ZM12.1659 36.2967L10.042 38.2503H8.24295L3.77027 30.535L7.06856 28.1116L9.96705 29.9415V33.2304L12.1659 35.3076V36.2967ZM8.21796 21.4596H18.0379L19.2123 26.4053H7.06856L8.21796 21.4596ZM13.1404 15.3022L0.671875 22.424V36.6677L13.1404 43.7895L25.6089 36.6677V22.424L13.1404 15.3022Z" fill="white"/>
<path d="M39.597 36.148C36.2987 36.148 33.875 33.601 33.875 30.4604C33.875 27.3199 36.3237 24.6987 39.622 24.6987C41.7209 24.6987 43.0203 25.4653 44.0447 26.578L42.4705 28.2596C41.6959 27.4435 40.8714 26.8995 39.597 26.8995C37.748 26.8995 36.3987 28.4821 36.3987 30.411C36.3987 32.3893 37.773 33.9719 39.722 33.9719C40.9213 33.9719 41.7959 33.4031 42.5955 32.6118L44.1197 34.1203C43.0203 35.2825 41.7459 36.148 39.597 36.148Z" fill="white"/>
<path d="M48.9471 36.1483H46.3984V24.7237H48.9471V27.3944C49.6468 25.7623 50.9211 24.6248 52.8701 24.7237V27.3944H52.7202C50.4963 27.3944 48.9471 28.8286 48.9471 31.7466V36.1483Z" fill="white"/>
<path d="M66.1845 24.6743L60.5624 39.2146H57.9888L59.2131 36.1483L54.3906 24.6743H57.1142L60.3875 33.1561L63.5359 24.6743H66.1845Z" fill="white"/>
<path d="M73.6908 26.8751C71.9667 26.8751 70.4675 28.2599 70.4675 30.4113C70.4675 32.5627 71.9917 33.9475 73.6908 33.9475C75.4399 33.9475 76.8641 32.5874 76.8641 30.4113C76.8641 28.2352 75.4149 26.8751 73.6908 26.8751ZM74.2655 36.1236C72.4414 36.1236 71.292 35.2086 70.5174 34.1948V39.2146H67.9688V24.6743H70.5174V26.7267C71.342 25.5892 72.4914 24.6743 74.2655 24.6743C76.8891 24.6743 79.4378 26.7267 79.4378 30.3865C79.4378 34.0464 76.9141 36.1236 74.2655 36.1236Z" fill="white"/>
<path d="M85.0026 27.073V32.4638C85.0026 33.4282 85.5024 33.8239 86.3769 33.8239H87.3764V36.0742H85.6273C83.7783 36.0742 82.454 35.2581 82.454 32.8595V27.073H81.0547V24.9216H82.454V21.9047H85.0026V24.9216H87.3764V27.073H85.0026Z" fill="white"/>
<path d="M95.3954 26.8748C93.3465 26.8748 92.0471 28.4574 92.0471 30.3862C92.0471 32.3398 93.4464 33.9472 95.4204 33.9472C97.4693 33.9472 98.7686 32.3645 98.7686 30.4357C98.8186 28.4821 97.3944 26.8748 95.3954 26.8748ZM95.3954 36.148C92.0221 36.148 89.5234 33.601 89.5234 30.4604C89.5234 27.2952 92.0471 24.6987 95.4454 24.6987C98.8436 24.6987 101.342 27.2457 101.342 30.411C101.342 33.5268 98.8436 36.148 95.3954 36.148Z" fill="white"/>
<path d="M125.653 26.8748C123.604 26.8748 122.305 28.4574 122.305 30.3862C122.305 32.3398 123.704 33.9472 125.678 33.9472C127.727 33.9472 129.026 32.3645 129.026 30.4357C129.051 28.4821 127.652 26.8748 125.653 26.8748ZM125.653 36.148C122.28 36.148 119.781 33.601 119.781 30.4604C119.781 27.2952 122.305 24.6987 125.703 24.6987C129.101 24.6987 131.6 27.2457 131.6 30.411C131.6 33.5268 129.076 36.148 125.653 36.148Z" fill="white"/>
<path d="M146.696 24.6743C149.12 24.6743 150.594 26.1827 150.594 28.8781V36.1236H148.046V29.6447C148.046 27.889 147.221 26.974 145.797 26.974C144.423 26.974 143.423 27.9384 143.423 29.6941V36.1483H140.874V29.6447C140.874 27.9384 140.025 26.974 138.626 26.974C137.226 26.974 136.252 28.0126 136.252 29.7189V36.1483H133.703V24.699H136.252V26.5783C136.976 25.6139 137.926 24.699 139.625 24.699C141.224 24.699 142.324 25.4656 142.923 26.6278C143.848 25.4408 145.022 24.6743 146.696 24.6743Z" fill="white"/>
<path d="M103.567 33.7002L104.667 33.082H104.816L105.941 33.7002L106.016 33.8238V35.1097L105.941 35.2334L104.816 35.8516H104.667L103.567 35.2334L103.492 35.1097V33.8238L103.567 33.7002Z" fill="white"/>
<path d="M113.732 36.1237C110.434 36.0495 108.06 33.453 108.11 30.3125C108.16 27.1719 110.659 24.6002 113.982 24.6744C116.081 24.7238 117.38 25.5151 118.38 26.6526L116.781 28.3094C116.031 27.4934 115.206 26.8999 113.932 26.8752C112.083 26.8505 110.709 28.3836 110.684 30.3372C110.634 32.3155 111.983 33.9228 113.932 33.9476C115.132 33.9723 116.031 33.4283 116.831 32.6369L118.33 34.1701C117.205 35.3324 115.906 36.1731 113.732 36.1237Z" fill="white"/>
</svg>
