<svg width="150" height="61" viewBox="0 0 150 61" fill="none" xmlns="http://www.w3.org/2000/svg">
<path d="M0.1059 32.4933C0.1059 43.786 9.26035 52.9406 20.5529 52.9406C31.8455 52.9406 41 43.786 41 32.4933C41 21.2005 31.8455 12.0459 20.5529 12.0459C9.26035 12.0459 0.1059 21.2005 0.1059 32.4933Z" fill="white"/>
<path d="M37.8972 12.5973C37.8972 15.6633 40.3826 18.1487 43.4486 18.1487C46.5145 18.1487 49 15.6633 49 12.5973C49 9.53136 46.5145 7.0459 43.4486 7.0459C40.3826 7.0459 37.8972 9.53136 37.8972 12.5973Z" fill="white"/>
<path d="M50 43.2783H53.3403L55.3536 32.8235C55.6342 31.3445 55.94 28.9985 55.94 28.9985H55.9912C55.9912 28.9985 56.0167 31.1659 56.119 32.5174L56.9867 43.2783H60.4544L65.4779 32.4924C66.1918 30.9626 66.9825 28.9991 66.9825 28.9991H67.0336C67.0336 28.9991 66.4472 31.2432 66.141 32.8242L64.1277 43.2789H67.5194L71.0367 25.0462H65.7837L61.3981 34.5058C60.3528 36.7748 59.5366 39.2231 59.5366 39.2231H59.511C59.511 39.2231 59.4855 36.5968 59.2816 34.0459L58.5932 25.0462H53.5189L50 43.2783ZM76.1365 43.6618C80.5988 43.6618 83.4038 39.9898 83.4038 35.8081C83.4038 31.9322 80.7008 29.8412 77.3605 29.8412C72.8982 29.8412 69.9913 33.4365 69.9913 37.5674C69.9913 41.5685 72.7196 43.6608 76.1365 43.6608V43.6618ZM73.408 37.7703C73.408 35.2456 74.5553 32.4154 77.1819 32.4154C79.1952 32.4154 79.9868 33.9964 79.9868 35.7049C79.9868 38.2036 78.8648 41.0853 76.2129 41.0853C74.1986 41.0853 73.408 39.5552 73.408 37.7703ZM89.6762 43.6608C94.1385 43.6608 96.9434 39.9888 96.9434 35.8071C96.9434 31.9312 94.2404 29.8402 90.9002 29.8402C86.4385 29.8399 83.5303 33.4355 83.5303 37.5664C83.5303 41.5685 86.2596 43.6608 89.6765 43.6608H89.6762ZM86.9479 37.7703C86.9479 35.2456 88.0952 32.4154 90.7218 32.4154C92.7352 32.4154 93.5268 33.9964 93.5268 35.7049C93.5268 38.2036 92.4048 41.0853 89.7529 41.0853C87.7386 41.0853 86.9479 39.5552 86.9479 37.7703ZM102.324 30.1963H98.9836L96.459 43.2773H99.8759L101.253 36.1376C101.61 34.2252 102.758 32.7462 104.364 32.7462C105.817 32.7462 106.48 33.6896 106.149 35.4236L104.619 43.2783H108.036L109.617 35.0171C110.203 31.9571 108.699 29.8399 106.098 29.8399C104.236 29.8399 103.14 30.6558 102.018 32.2623H101.942L102.324 30.1963ZM109.642 43.2773H113.416L114.689 36.6738H119.126C123.206 36.6738 125.985 34.3278 125.985 30.4263C125.985 27.0094 123.665 25.0459 120.171 25.0459H113.161L109.642 43.2773ZM116.321 28.2328H119.687C121.345 28.2328 122.212 29.1253 122.212 30.604C122.212 32.7714 120.657 33.6896 118.948 33.6896H115.277L116.321 28.2328ZM132.54 43.2783H135.778V43.1504C135.575 42.8446 135.498 42.2326 135.677 41.34L136.9 35.0676C137.614 31.2681 135.166 29.8658 131.928 29.8658C128.562 29.8658 126.495 31.4979 126.063 34.1753H129.123C129.429 32.875 130.373 32.3138 131.801 32.3138C133.101 32.3138 133.841 32.8251 133.841 33.7672C133.841 35.0676 132.897 35.1696 130.449 35.3738C127.262 35.6294 124.508 36.2664 124.508 39.7341C124.508 42.4371 126.649 43.5844 128.664 43.5844C130.55 43.5844 131.52 42.6918 132.311 41.8504H132.362C132.312 42.3337 132.373 42.8221 132.54 43.2783ZM127.797 39.4273C127.797 37.6425 129.608 37.7188 130.857 37.4894C131.715 37.3753 132.555 37.1525 133.356 36.8263L132.948 38.8917C132.692 40.0901 131.546 41.2122 129.76 41.2122C128.613 41.2128 127.797 40.6008 127.797 39.4273ZM135.804 47.5622H137.945C140.47 47.5622 141.592 46.5421 142.892 43.9158L149.651 30.1972H146.182L143.479 36.1385C142.918 37.3625 142.281 39.0966 142.281 39.0966H142.23C142.23 39.0966 142.026 37.3369 141.846 36.1385L140.953 30.1972H137.384L139.269 39.5043C139.504 40.4664 139.649 41.448 139.703 42.4368C139.703 44.0689 138.887 44.8592 137.434 44.8592H136.337L135.804 47.5622Z" fill="white"/>
</svg>
