<svg width="20" height="20" viewBox="0 0 20 20" fill="none" xmlns="http://www.w3.org/2000/svg">
<path d="M10 12.5C12.125 12.5 14.0312 12.0312 15.4062 11.25C16.7812 10.5 17.5 9.5 17.5 8.5C17.5 7.53125 16.7812 6.53125 15.4062 5.78125C14.0312 5 12.125 4.5 10 4.5C7.84375 4.5 5.9375 5 4.5625 5.78125C3.1875 6.53125 2.5 7.53125 2.5 8.5C2.5 9.5 3.1875 10.5 4.5625 11.25C5.9375 12.0312 7.84375 12.5 10 12.5ZM2 8.5C2 6.03125 5.5625 4 10 4C14.4062 4 18 6.03125 18 8.5V9V12C18 14.2188 14.4062 16 10 16C5.5625 16 2 14.2188 2 12V9V8.5ZM7.25 12.75V15.25C8 15.4062 8.84375 15.5 9.75 15.5V13C8.875 13 8.03125 12.9062 7.25 12.75ZM6.75 12.625C6 12.4375 5.34375 12.2188 4.75 11.9062V14.4688C5.3125 14.75 6 14.9688 6.75 15.1562V12.625ZM2.5 10.0938V12C2.5 12.75 3.0625 13.5625 4.25 14.2188V11.6562C3.46875 11.1875 2.875 10.6562 2.5 10.0938ZM12.75 15.25V12.75C11.9375 12.9062 11.125 13 10.25 13V15.5C11.125 15.5 11.9688 15.4062 12.75 15.25ZM13.25 12.625V15.1562C13.9688 15 14.6562 14.75 15.25 14.5V11.9062C14.625 12.1875 13.9688 12.4375 13.25 12.625ZM17.5 12V10.0938C17.0938 10.6562 16.5 11.1875 15.75 11.6562V14.2188C16.9062 13.5625 17.5 12.75 17.5 12ZM10 6C8.4375 6 7.03125 6.3125 6.03125 6.75C5 7.21875 4.5 7.8125 4.5 8.375C4.5 8.96875 5 9.5625 6.03125 10.0312C7.03125 10.4688 8.4375 10.75 10 10.75C11.5312 10.75 12.9375 10.4688 13.9375 10.0312C14.9688 9.5625 15.5 8.96875 15.5 8.375C15.5 7.8125 14.9688 7.21875 13.9375 6.75C12.9375 6.3125 11.5312 6 10 6ZM16 8.375C16 9.28125 15.2188 10 14.1562 10.4688C13.0625 10.9688 11.5938 11.25 10 11.25C8.375 11.25 6.90625 10.9688 5.8125 10.4688C4.75 10 4 9.28125 4 8.375C4 7.5 4.75 6.78125 5.8125 6.3125C6.90625 5.8125 8.375 5.5 10 5.5C11.5938 5.5 13.0625 5.8125 14.1562 6.3125C15.2188 6.78125 16 7.5 16 8.375Z" fill="#D4D4D4"/>
</svg>
