<svg width="20" height="20" viewBox="0 0 20 20" fill="none" xmlns="http://www.w3.org/2000/svg">
<path d="M2.5 8.96875C2.5 10.5312 2.96875 11.9375 3.84375 13.0312C4.21875 13.5 4.5 14.0625 4.5 14.6875V17.75C4.5 17.9062 4.375 18 4.25 18C4.09375 18 4 17.9062 4 17.75V14.6875C4 14.2188 3.78125 13.75 3.46875 13.3438C2.5 12.1562 2 10.625 2 8.96875C2 5.125 5.09375 2 8.9375 2H9.46875C11.9062 2 14.1562 3.46875 15.125 5.59375C15.25 5.84375 15.3438 6.09375 15.4688 6.3125C15.6562 6.75 15.8438 7.1875 16.0625 7.59375C16.4062 8.25 16.8125 8.84375 17.3125 9.3125L17.4375 9.40625C17.7812 9.71875 18 10.1562 18 10.625C18 11.5312 17.25 12.25 16.3438 12.25H16V14.25C16 15.2188 15.1875 16 14.25 16H12V17.7812C12 17.9062 11.875 18.0312 11.75 18.0312C11.5938 18.0312 11.5 17.9062 11.5 17.7812V15.7812C11.5 15.625 11.5938 15.5312 11.75 15.5312H14.25C14.9375 15.5312 15.5 14.9688 15.5 14.2812V12.0312C15.5 11.875 15.5938 11.7812 15.75 11.7812H16.3438C16.9688 11.7812 17.5 11.25 17.5 10.625C17.5 10.3125 17.3438 10 17.0938 9.78125L17 9.6875C16.4062 9.15625 15.9688 8.53125 15.625 7.84375C15.4062 7.40625 15.1875 6.96875 15 6.5C14.9062 6.28125 14.7812 6.03125 14.6875 5.78125C13.7812 3.875 11.7188 2.5 9.46875 2.5H8.9375C5.375 2.5 2.5 5.40625 2.5 8.96875ZM8.5 5.5625H8.46875V5.6875C8.46875 6.1875 8.15625 6.625 7.75 6.875C7.34375 7.09375 6.8125 7.1875 6.34375 6.90625L6.21875 6.84375C6.125 6.96875 6.0625 7.09375 5.96875 7.21875L5.90625 7.3125C5.84375 7.4375 5.78125 7.59375 5.71875 7.71875L5.84375 7.78125C6.3125 8.03125 6.46875 8.5625 6.46875 9C6.46875 9.46875 6.3125 10 5.84375 10.25L5.71875 10.3125C5.78125 10.4375 5.84375 10.5625 5.90625 10.6875L5.96875 10.8125C6.0625 10.9375 6.125 11.0625 6.21875 11.1875L6.34375 11.125C6.8125 10.8438 7.34375 10.9375 7.75 11.1562C8.15625 11.4062 8.46875 11.8125 8.46875 12.3438V12.4688C8.65625 12.5 8.8125 12.5 8.96875 12.5C9.15625 12.5 9.3125 12.5 9.46875 12.4688V12.3438C9.46875 11.8125 9.8125 11.4062 10.2188 11.1562C10.625 10.9375 11.1562 10.8438 11.625 11.125L11.75 11.1875C11.8125 11.0625 11.9062 10.9375 11.9688 10.8125L12.0625 10.6875C12.125 10.5625 12.1875 10.4375 12.25 10.3125L12.125 10.25C11.6562 10 11.5 9.46875 11.5 9C11.5 8.5625 11.6562 8.03125 12.125 7.78125L12.25 7.71875C12.1875 7.59375 12.125 7.4375 12.0625 7.3125L12 7.21875C11.9062 7.09375 11.8438 6.96875 11.75 6.84375L11.625 6.90625C11.1562 7.1875 10.625 7.09375 10.2188 6.875C9.8125 6.625 9.5 6.1875 9.5 5.6875V5.5625C9.3125 5.53125 9.15625 5.5 9 5.5C8.8125 5.5 8.65625 5.53125 8.5 5.5625ZM8.375 5.0625C8.5625 5.03125 8.78125 5.03125 9 5.03125C9.1875 5.03125 9.40625 5.03125 9.625 5.0625C9.84375 5.09375 10 5.3125 10 5.53125V5.6875C10 5.96875 10.1875 6.25 10.4688 6.4375C10.7812 6.59375 11.125 6.625 11.375 6.46875L11.5 6.40625C11.7188 6.28125 11.9688 6.3125 12.0938 6.5C12.2188 6.65625 12.3125 6.78125 12.4062 6.9375L12.4375 6.96875L12.5 7.0625V7.09375C12.5938 7.25 12.6562 7.40625 12.7188 7.5625C12.8125 7.78125 12.7188 8.03125 12.5 8.125L12.375 8.21875C12.125 8.34375 12 8.65625 12 9C12 9.375 12.125 9.65625 12.375 9.8125L12.5 9.875C12.7188 10 12.8125 10.25 12.7188 10.4375C12.6562 10.625 12.5938 10.7812 12.5 10.9375L12.4375 11.0625H12.4062C12.3125 11.2188 12.2188 11.375 12.0938 11.5312C11.9688 11.6875 11.7188 11.7188 11.5 11.625L11.375 11.5312C11.125 11.375 10.7812 11.4062 10.4688 11.5938C10.1875 11.75 10 12.0312 10 12.3438V12.5C10 12.7188 9.84375 12.9062 9.625 12.9688C9.40625 13 9.1875 13 9 13C8.78125 13 8.5625 13 8.375 12.9688C8.15625 12.9062 8 12.7188 8 12.5V12.3438C8 12.0312 7.78125 11.75 7.5 11.5938C7.1875 11.4062 6.84375 11.375 6.59375 11.5312L6.46875 11.625C6.25 11.7188 6 11.6875 5.875 11.5312C5.75 11.375 5.65625 11.2188 5.5625 11.0625L5.46875 10.9375C5.40625 10.7812 5.3125 10.625 5.25 10.4375C5.15625 10.25 5.25 10 5.46875 9.875L5.59375 9.8125C5.84375 9.65625 5.96875 9.375 5.96875 9C5.96875 8.65625 5.84375 8.34375 5.59375 8.21875L5.46875 8.125C5.25 8.03125 5.15625 7.78125 5.25 7.5625C5.3125 7.40625 5.40625 7.25 5.46875 7.09375L5.5 7.0625L5.5625 6.9375C5.65625 6.78125 5.75 6.625 5.875 6.5C6 6.3125 6.25 6.28125 6.46875 6.40625L6.59375 6.46875C6.84375 6.625 7.1875 6.59375 7.5 6.4375C7.78125 6.25 8 5.96875 8 5.6875V5.53125C8 5.28125 8.15625 5.09375 8.375 5.0625ZM9 8.25C8.5625 8.25 8.25 8.59375 8.25 9C8.25 9.4375 8.5625 9.75 9 9.75C9.40625 9.75 9.75 9.4375 9.75 9C9.75 8.59375 9.40625 8.25 9 8.25ZM9 10.25C8.53125 10.25 8.125 10.0312 7.90625 9.625C7.6875 9.25 7.6875 8.78125 7.90625 8.375C8.125 8 8.53125 7.75 9 7.75C9.4375 7.75 9.84375 8 10.0625 8.375C10.2812 8.78125 10.2812 9.25 10.0625 9.625C9.84375 10.0312 9.4375 10.25 9 10.25Z" fill="#D4D4D4"/>
</svg>
