<svg width="20" height="20" viewBox="0 0 20 20" fill="none" xmlns="http://www.w3.org/2000/svg">
<path d="M9.71875 2.5625L6.25 3.78125L10 5.21875L13.7188 3.78125L10.25 2.5625C10.0625 2.5 9.90625 2.5 9.71875 2.5625ZM5.5 8.84375V4.0625C5.5 3.75 5.6875 3.46875 5.96875 3.375L9.5625 2.09375C9.84375 2 10.125 2 10.4062 2.09375L14 3.375C14.2812 3.46875 14.5 3.75 14.5 4.0625V8.84375L18.4688 10.1875C18.7812 10.2812 19 10.5625 19 10.9062V15.5938C19 16 18.75 16.375 18.3438 16.5312L14.8438 17.9062C14.625 17.9688 14.375 18 14.125 17.9062L10 16.375L5.84375 17.9062C5.59375 18 5.34375 18 5.125 17.9062L1.625 16.5312C1.25 16.375 1 16 1 15.5938V10.9062C1 10.5625 1.1875 10.2812 1.5 10.1875L5.5 8.84375ZM6 8.84375L9.75 10.4062V5.65625L6 4.21875V8.84375ZM10.25 11.125V15.9375L14.25 17.4062V12.6875L10.25 11.125ZM5.71875 9.28125L1.75 10.625L5.5 12.25L9.28125 10.7812L5.71875 9.28125ZM1.5 15.5938C1.5 15.8125 1.625 15.9688 1.8125 16.0625L5.25 17.4062V12.6875L1.5 11.0625V15.5938ZM5.75 17.4062L9.75 15.9375V11.125L5.75 12.6875V17.4062ZM10.25 5.65625V10.4062L14 8.84375V4.21875L10.25 5.65625ZM10.6875 10.7812L14.4688 12.25L18.2188 10.625L14.25 9.28125L10.6875 10.7812ZM18.1562 16.0625C18.375 15.9688 18.5 15.8125 18.5 15.5938V11.0625L14.75 12.6875V17.4062L18.1562 16.0625Z" fill="#D4D4D4"/>
</svg>
