<svg width="20" height="20" viewBox="0 0 20 20" fill="none" xmlns="http://www.w3.org/2000/svg">
<path d="M7.625 16.1875C8.21875 15.9688 8.875 15.6875 9.5 15.3125C8.625 14.7188 7.71875 14 6.84375 13.1562C6 12.2812 5.28125 11.375 4.6875 10.5C4.3125 11.1562 4.03125 11.7812 3.8125 12.375C3.28125 14.0312 3.40625 15.25 4.09375 15.9062C4.75 16.5938 5.96875 16.7188 7.625 16.1875ZM3.71875 3.75C4.9375 2.53125 7.40625 2.875 10 4.40625C12.5625 2.875 15.0312 2.53125 16.25 3.75C17.4688 4.96875 17.125 7.4375 15.5938 10C17.125 12.5938 17.4688 15.0625 16.25 16.2812C15.0312 17.5 12.5625 17.1562 10 15.625C7.40625 17.1562 4.9375 17.5 3.71875 16.2812C2.5 15.0625 2.84375 12.5938 4.375 10C2.84375 7.4375 2.5 4.96875 3.71875 3.75ZM3.8125 7.65625C4.03125 8.25 4.3125 8.875 4.6875 9.53125C5.28125 8.65625 6 7.75 6.84375 6.875C7.71875 6.03125 8.625 5.3125 9.5 4.71875C8.84375 4.34375 8.21875 4.0625 7.625 3.84375C5.96875 3.3125 4.75 3.4375 4.09375 4.09375C3.40625 4.78125 3.28125 6 3.8125 7.65625ZM7.21875 7.25C6.3125 8.125 5.5625 9.09375 4.96875 10C5.5625 10.9375 6.3125 11.875 7.21875 12.7812C8.09375 13.6875 9.0625 14.4375 9.96875 15.0312C10.9062 14.4375 11.8438 13.6875 12.75 12.7812C13.6562 11.875 14.4062 10.9375 15 10C14.4062 9.09375 13.6562 8.125 12.75 7.25C11.875 6.34375 10.9062 5.59375 9.96875 5C9.0625 5.59375 8.09375 6.34375 7.21875 7.25ZM12.3438 16.1875H12.375C14 16.7188 15.25 16.5625 15.9062 15.9062C16.5625 15.25 16.6875 14.0312 16.1562 12.375C15.9375 11.7812 15.6562 11.125 15.2812 10.5C14.6875 11.375 13.9688 12.2812 13.125 13.1562C12.25 14 11.375 14.7188 10.4688 15.3125C11.125 15.6875 11.75 15.9688 12.3438 16.1875ZM16.1562 7.65625C16.6875 6 16.5625 4.78125 15.9062 4.09375C15.2188 3.4375 14 3.3125 12.3438 3.84375C11.75 4.0625 11.125 4.34375 10.4688 4.71875C11.3438 5.3125 12.25 6.03125 13.125 6.875C13.9688 7.75 14.6875 8.625 15.2812 9.53125C15.6562 8.875 15.9375 8.25 16.1562 7.65625ZM10 11.5C9.4375 11.5 8.96875 11.2188 8.6875 10.75C8.40625 10.3125 8.40625 9.71875 8.6875 9.25C8.96875 8.8125 9.4375 8.5 10 8.5C10.5312 8.5 11 8.8125 11.2812 9.25C11.5625 9.71875 11.5625 10.3125 11.2812 10.75C11 11.2188 10.5312 11.5 10 11.5ZM9 10C9 10.5625 9.4375 11 10 11C10.5312 11 11 10.5625 11 10C11 9.46875 10.5312 9 10 9C9.4375 9 9 9.46875 9 10Z" fill="#D4D4D4"/>
</svg>
