<svg width="20" height="20" viewBox="0 0 20 20" fill="none" xmlns="http://www.w3.org/2000/svg">
<path d="M9.40625 2.71875L3.875 5.0625C3.34375 5.28125 2.96875 5.78125 3 6.375C3 9.40625 4.25 14.8438 9.375 17.2812C9.75 17.4688 10.2188 17.4688 10.5938 17.2812C15.7188 14.8438 16.9688 9.40625 17 6.375C17 5.78125 16.625 5.28125 16.0938 5.0625L10.5625 2.71875C10.1875 2.5625 9.78125 2.5625 9.40625 2.71875ZM10.7812 2.25L16.2812 4.59375C16.9688 4.90625 17.5 5.5625 17.5 6.375C17.4688 9.5 16.1875 15.1562 10.8125 17.75C10.2812 18 9.6875 18 9.15625 17.75C3.78125 15.1562 2.5 9.5 2.5 6.375C2.46875 5.5625 3 4.90625 3.6875 4.59375L9.21875 2.25C9.71875 2.03125 10.2812 2.03125 10.7812 2.25ZM13.1562 8.1875L9.15625 12.1875C9.0625 12.2812 8.90625 12.2812 8.8125 12.1875L6.8125 10.1875C6.71875 10.0938 6.71875 9.9375 6.8125 9.84375C6.90625 9.75 7.0625 9.75 7.15625 9.84375L9 11.6562L12.8125 7.84375C12.9062 7.75 13.0625 7.75 13.1562 7.84375C13.25 7.9375 13.25 8.09375 13.1562 8.1875Z" fill="#D4D4D4"/>
</svg>
