<svg width="20" height="20" viewBox="0 0 20 20" fill="none" xmlns="http://www.w3.org/2000/svg">
<path d="M7.25 2.25V4H9.75V2.25C9.75 2.125 9.84375 2 10 2C10.125 2 10.25 2.125 10.25 2.25V4H12.75V2.25C12.75 2.125 12.8438 2 13 2C13.125 2 13.25 2.125 13.25 2.25V4H14C15.0938 4 16 4.90625 16 6V6.75H17.75C17.875 6.75 18 6.875 18 7C18 7.15625 17.875 7.25 17.75 7.25H16V9.75H17.75C17.875 9.75 18 9.875 18 10C18 10.1562 17.875 10.25 17.75 10.25H16V12.75H17.75C17.875 12.75 18 12.875 18 13C18 13.1562 17.875 13.25 17.75 13.25H16V14C16 15.125 15.0938 16 14 16H13.25V17.75C13.25 17.9062 13.125 18 13 18C12.8438 18 12.75 17.9062 12.75 17.75V16H10.25V17.75C10.25 17.9062 10.125 18 10 18C9.84375 18 9.75 17.9062 9.75 17.75V16H7.25V17.75C7.25 17.9062 7.125 18 7 18C6.84375 18 6.75 17.9062 6.75 17.75V16H6C4.875 16 4 15.125 4 14V13.25H2.25C2.09375 13.25 2 13.1562 2 13C2 12.875 2.09375 12.75 2.25 12.75H4V10.25H2.25C2.09375 10.25 2 10.1562 2 10C2 9.875 2.09375 9.75 2.25 9.75H4V7.25H2.25C2.09375 7.25 2 7.15625 2 7C2 6.875 2.09375 6.75 2.25 6.75H4V6C4 4.90625 4.875 4 6 4H6.75V2.25C6.75 2.125 6.84375 2 7 2C7.125 2 7.25 2.125 7.25 2.25ZM10 4.5H7H6C5.15625 4.5 4.5 5.1875 4.5 6V7V10V13V14C4.5 14.8438 5.15625 15.5 6 15.5H7H10H13H14C14.8125 15.5 15.5 14.8438 15.5 14V13V10V7V6C15.5 5.1875 14.8125 4.5 14 4.5H13H10ZM13.5 7C13.5 6.75 13.25 6.5 13 6.5H7C6.71875 6.5 6.5 6.75 6.5 7V13C6.5 13.2812 6.71875 13.5 7 13.5H13C13.25 13.5 13.5 13.2812 13.5 13V7ZM7 6H13C13.5312 6 14 6.46875 14 7V13C14 13.5625 13.5312 14 13 14H7C6.4375 14 6 13.5625 6 13V7C6 6.46875 6.4375 6 7 6Z" fill="#D4D4D4"/>
</svg>
