<svg width="20" height="20" viewBox="0 0 20 20" fill="none" xmlns="http://www.w3.org/2000/svg">
<path d="M7.59375 15.5C6.59375 14.2812 6 12.7188 6 11C6 7.71875 8.28125 4.9375 11.3438 4.21875C10.2188 3.15625 8.65625 2.5 7 2.5C3.40625 2.5 0.5 5.4375 0.5 9C0.5 12.5938 3.40625 15.5 7 15.5C7.1875 15.5 7.40625 15.5 7.59375 15.5ZM8.1875 15.4062C11.2188 14.8438 13.5 12.1875 13.5 9C13.5 7.3125 12.8438 5.78125 11.7812 4.625C8.78125 5.1875 6.5 7.84375 6.5 11C6.5 12.7188 7.125 14.25 8.1875 15.4062ZM8 15.9375C7.6875 16 7.34375 16 7 16C3.125 16 0 12.875 0 9C0 5.15625 3.125 2 7 2C8.9375 2 10.6875 2.8125 11.9688 4.09375C12.2812 4.03125 12.625 4 13 4C16.8438 4 20 7.15625 20 11C20 14.875 16.8438 18 13 18C11.0312 18 9.28125 17.2188 8 15.9375ZM12.375 4.53125C13.375 5.75 14 7.3125 14 9C14 12.3125 11.6875 15.0938 8.625 15.8125C9.78125 16.875 11.3125 17.5 13 17.5C16.5625 17.5 19.5 14.5938 19.5 11C19.5 7.4375 16.5625 4.5 13 4.5C12.7812 4.5 12.5625 4.53125 12.375 4.53125Z" fill="#D4D4D4"/>
</svg>
