<svg width="20" height="20" viewBox="0 0 20 20" fill="none" xmlns="http://www.w3.org/2000/svg">
<path d="M11.4062 2.09375C11.5 2.1875 11.5 2.34375 11.4062 2.4375L11.0938 2.75L17.25 8.90625L17.5625 8.59375C17.6562 8.5 17.8125 8.5 17.9062 8.59375C18 8.6875 18 8.84375 17.9062 8.9375L17.4062 9.4375L13.9062 12.9375L13.4062 13.4375C13.3125 13.5312 13.1562 13.5312 13.0625 13.4375C12.9688 13.3438 12.9688 13.1875 13.0625 13.0938L13.375 12.75L7.25 6.625L6.90625 6.9375C6.8125 7.03125 6.65625 7.03125 6.5625 6.9375C6.46875 6.84375 6.46875 6.6875 6.5625 6.59375L7.0625 6.09375L10.5625 2.59375L11.0625 2.09375C11.1562 2 11.3125 2 11.4062 2.09375ZM7.59375 6.25L13.75 12.4062L16.875 9.25L10.75 3.125L7.59375 6.25ZM6.84375 11.6562C6.65625 11.4688 6.3125 11.4688 6.125 11.6562L2.625 15.1562C2.4375 15.3438 2.4375 15.6875 2.625 15.875L4.125 17.375C4.3125 17.5625 4.65625 17.5625 4.84375 17.375L8.34375 13.875C8.53125 13.6875 8.53125 13.3438 8.34375 13.1562L6.84375 11.6562ZM5.78125 11.3125C6.15625 10.9062 6.8125 10.9062 7.1875 11.3125L7.78125 11.875L9.4375 10.2188L9.78125 10.5625L8.125 12.2188L8.6875 12.8125C9.09375 13.1875 9.09375 13.8438 8.6875 14.2188L5.1875 17.7188C4.8125 18.125 4.15625 18.125 3.78125 17.7188L2.28125 16.2188C1.875 15.8438 1.875 15.1875 2.28125 14.8125L5.78125 11.3125Z" fill="#D4D4D4"/>
</svg>
