<svg width="20" height="20" viewBox="0 0 20 20" fill="none" xmlns="http://www.w3.org/2000/svg">
<path d="M8.59375 2.90625L8.1875 4.6875C8.1875 4.78125 8.125 4.84375 8.03125 4.875C7.46875 5.09375 6.96875 5.375 6.5 5.75C6.4375 5.8125 6.34375 5.8125 6.28125 5.8125L4.53125 5.25C4.3125 5.1875 4.0625 5.28125 3.9375 5.46875L3.03125 7.03125C2.9375 7.25 2.96875 7.5 3.125 7.65625L4.46875 8.90625C4.53125 8.96875 4.5625 9.03125 4.5625 9.125C4.5 9.40625 4.5 9.71875 4.5 10C4.5 10.3125 4.5 10.625 4.5625 10.9062C4.5625 10.9688 4.53125 11.0625 4.46875 11.125L3.125 12.375C2.96875 12.5312 2.9375 12.7812 3.03125 12.9688L3.9375 14.5312C4.0625 14.75 4.3125 14.8438 4.53125 14.7812L6.28125 14.2188C6.34375 14.2188 6.4375 14.2188 6.5 14.2812C6.96875 14.6562 7.46875 14.9375 8.03125 15.1562C8.125 15.1875 8.1875 15.25 8.1875 15.3438L8.59375 17.125C8.65625 17.3438 8.84375 17.5 9.09375 17.5H10.875C11.125 17.5 11.3125 17.3438 11.375 17.125L11.7812 15.3438C11.7812 15.25 11.8438 15.1875 11.9375 15.1562C12.5 14.9375 13 14.6562 13.4688 14.2812C13.5312 14.2188 13.625 14.2188 13.6875 14.2188L15.4375 14.7812C15.6562 14.8438 15.9062 14.75 16.0312 14.5312L16.9375 13C17.0625 12.7812 17 12.5312 16.8438 12.375L15.5 11.125C15.4375 11.0625 15.4062 11 15.4062 10.9062C15.4688 10.625 15.5 10.3125 15.5 10.0312C15.5 9.71875 15.4688 9.40625 15.4062 9.125C15.4062 9.0625 15.4375 8.96875 15.5 8.90625L16.8438 7.65625C17 7.5 17.0625 7.25 16.9375 7.03125L16.0312 5.46875C15.9062 5.28125 15.6562 5.1875 15.4375 5.25L13.6875 5.8125C13.625 5.8125 13.5312 5.8125 13.4688 5.75C13 5.375 12.5 5.09375 11.9375 4.875C11.8438 4.84375 11.7812 4.78125 11.7812 4.6875L11.375 2.90625C11.3125 2.6875 11.125 2.5 10.875 2.5H9.09375C8.84375 2.5 8.65625 2.6875 8.59375 2.90625ZM9.09375 2H10.875C11.3438 2 11.75 2.34375 11.875 2.78125L12.25 4.4375C12.75 4.65625 13.25 4.9375 13.6875 5.28125L15.3125 4.78125C15.75 4.625 16.2188 4.8125 16.4688 5.21875L17.375 6.78125C17.5938 7.1875 17.5312 7.71875 17.1875 8.03125L15.9375 9.1875C15.9688 9.46875 16 9.71875 16 10C16 10.2812 15.9688 10.5625 15.9375 10.8438L17.1875 12C17.5312 12.3125 17.5938 12.8125 17.375 13.2188L16.4688 14.7812C16.2188 15.1875 15.75 15.375 15.2812 15.25L13.6875 14.75C13.25 15.0938 12.75 15.375 12.2188 15.5938L11.8438 17.25C11.75 17.6875 11.3438 18.0312 10.875 18.0312H9.09375C8.625 18.0312 8.21875 17.6875 8.09375 17.25L7.71875 15.5938C7.21875 15.375 6.71875 15.0938 6.28125 14.75L4.65625 15.25C4.21875 15.375 3.75 15.1875 3.5 14.7812L2.59375 13.2188C2.375 12.8438 2.4375 12.3125 2.78125 12L4.03125 10.8438C4 10.5625 4 10.2812 4 10C4 9.71875 4 9.46875 4.03125 9.1875L2.78125 8.03125C2.4375 7.71875 2.375 7.1875 2.59375 6.78125L3.5 5.21875C3.75 4.84375 4.21875 4.625 4.65625 4.78125L6.28125 5.28125C6.71875 4.9375 7.21875 4.65625 7.75 4.4375L8.125 2.78125C8.21875 2.34375 8.625 2 9.09375 2ZM10.7188 7.0625L9.71875 13.0625C9.71875 13.1875 9.59375 13.2812 9.4375 13.25C9.3125 13.25 9.21875 13.125 9.25 12.9688L10.25 6.96875C10.25 6.84375 10.375 6.75 10.5312 6.78125C10.6562 6.78125 10.75 6.90625 10.7188 7.0625ZM7.65625 8.9375L6.59375 10L7.65625 11.0938C7.75 11.1875 7.75 11.3438 7.65625 11.4375C7.5625 11.5312 7.40625 11.5312 7.3125 11.4375L6.0625 10.1875C5.96875 10.0938 5.96875 9.9375 6.0625 9.84375L7.3125 8.59375C7.40625 8.5 7.5625 8.5 7.65625 8.59375C7.75 8.6875 7.75 8.84375 7.65625 8.9375ZM12.6562 8.59375L13.9062 9.84375C14 9.9375 14 10.0938 13.9062 10.1875L12.6562 11.4375C12.5625 11.5312 12.4062 11.5312 12.3125 11.4375C12.2188 11.3438 12.2188 11.1875 12.3125 11.0938L13.375 10L12.3125 8.9375C12.2188 8.84375 12.2188 8.6875 12.3125 8.59375C12.4062 8.5 12.5625 8.5 12.6562 8.59375Z" fill="#D4D4D4"/>
</svg>
