<svg width="88" height="24" viewBox="0 0 88 24" fill="none" xmlns="http://www.w3.org/2000/svg">
<g filter="url(#filter0_d_2638_58359)">
<path d="M27.5484 10.243L33.5902 4.3433L31.2976 2.10449L26.4021 6.88546L21.5067 2.10449L19.2141 4.3433L25.2559 10.243C25.5718 10.5518 25.987 10.7069 26.4021 10.7069C26.8173 10.7069 27.2311 10.5518 27.5484 10.243ZM36.2952 16.5462L31.3997 11.7653L36.2952 6.98429L34.0026 4.74549L27.9608 10.6452C27.3276 11.2629 27.3276 12.2649 27.9608 12.884L34.0026 18.7837L36.2952 16.5449V16.5462ZM26.3938 16.6533L31.2892 21.4343L33.5818 19.1955L27.54 13.2958C26.9068 12.6781 25.8807 12.6781 25.2475 13.2958L19.2057 19.1955L21.4983 21.4343L26.3938 16.6533ZM24.8351 12.8936C25.1384 12.5971 25.3104 12.1935 25.3104 11.7749C25.3104 11.3562 25.1398 10.9526 24.8351 10.6562L18.7933 4.75647L16.5007 6.99527L21.3962 11.7762L16.5007 16.5572L18.7933 18.796L24.8351 12.8963V12.8936ZM16.4197 20.6587H11.3382L10.972 18.4021H7.65895L7.25775 20.6587H2.17773L6.5518 2.88142H12.5642L16.4197 20.6573V20.6587ZM10.3961 14.5916L10.0773 12.5188C10.0689 12.512 10.0536 12.4077 10.0298 12.2073C10.0144 12.0398 9.93195 11.3713 9.78237 10.2045C9.767 10.0741 9.74743 9.8957 9.72366 9.66921C9.6999 9.44272 9.66914 9.15584 9.63 8.8113L9.47623 7.13117C9.46085 7.29314 9.43989 7.47296 9.41193 7.67199C9.38397 7.87103 9.35461 8.09065 9.32386 8.32812C9.26934 8.80306 9.2302 9.13387 9.20643 9.31781C9.18267 9.50175 9.16729 9.61293 9.15891 9.65137L8.81642 11.8037L8.32156 14.5902H10.3975L10.3961 14.5916ZM46.7879 20.6587V16.3884H42.5676V13.6705H46.3517V9.65274H42.5676V7.06253H46.7879V2.88142H37.6511V20.6573H46.7879V20.6587ZM56.4572 16.3884H52.7668V2.88142H47.8503V20.6573H56.4572V16.387V16.3884ZM71.5533 20.6587H66.4719L66.1056 18.4021H62.7926L62.3914 20.6587H57.31L61.6854 2.88142H67.6979L71.5533 20.6573V20.6587ZM65.5297 14.5916L65.211 12.5188C65.2026 12.512 65.1872 12.4077 65.1634 12.2073C65.1481 12.0398 65.0656 11.3713 64.916 10.2045C64.9006 10.0741 64.8811 9.8957 64.8573 9.66921C64.8335 9.44272 64.8028 9.15584 64.7636 8.8113L64.6099 7.13117C64.5945 7.29314 64.5721 7.47296 64.5456 7.67199C64.5176 7.87103 64.4883 8.09065 64.4575 8.32812C64.403 8.80306 64.3638 9.13387 64.3401 9.31781C64.3163 9.50175 64.3009 9.61293 64.2939 9.65137L63.9515 11.8037L63.4566 14.5902H65.5325L65.5297 14.5916ZM85.5604 20.6587H80.2427L77.8145 14.3266C77.7908 14.2196 77.7488 14.0768 77.6901 13.9011C77.6314 13.724 77.5587 13.514 77.4721 13.2683L77.507 14.4433V20.6601H72.6143V2.88142H77.6482C79.8639 2.88142 81.5232 3.30831 82.6234 4.16073C84.0213 5.25062 84.7216 6.80173 84.7216 8.8113C84.7216 10.9609 83.7822 12.4461 81.9034 13.2669L85.5576 20.6587H85.5604ZM79.8429 8.86895C79.8429 7.54159 79.1314 6.87722 77.7097 6.87722H77.5336V11.1132H77.8635C78.4296 11.1132 78.9007 10.9032 79.2782 10.4805C79.6556 10.059 79.8443 9.52234 79.8443 8.86895H79.8429Z" fill="white"/>
</g>
<defs>
<filter id="filter0_d_2638_58359" x="0.265829" y="0.192587" width="87.2066" height="23.1539" filterUnits="userSpaceOnUse" color-interpolation-filters="sRGB">
<feFlood flood-opacity="0" result="BackgroundImageFix"/>
<feColorMatrix in="SourceAlpha" type="matrix" values="0 0 0 0 0 0 0 0 0 0 0 0 0 0 0 0 0 0 127 0" result="hardAlpha"/>
<feOffset/>
<feGaussianBlur stdDeviation="0.955953"/>
<feColorMatrix type="matrix" values="0 0 0 0 0 0 0 0 0 0 0 0 0 0 0 0 0 0 0.13 0"/>
<feBlend mode="normal" in2="BackgroundImageFix" result="effect1_dropShadow_2638_58359"/>
<feBlend mode="normal" in="SourceGraphic" in2="effect1_dropShadow_2638_58359" result="shape"/>
</filter>
</defs>
</svg>
