<svg width="53" height="32" viewBox="0 0 53 32" fill="none" xmlns="http://www.w3.org/2000/svg">
<g clip-path="url(#clip0_2638_58353)">
<path d="M15.0978 11.6439C15.0978 12.2644 15.1659 12.7675 15.2852 13.1364C15.4215 13.5053 15.5919 13.9078 15.8305 14.3438C15.9157 14.478 15.9498 14.6121 15.9498 14.7295C15.9498 14.8972 15.8475 15.0649 15.626 15.2326L14.5525 15.9369C14.3991 16.0376 14.2457 16.0879 14.1094 16.0879C13.939 16.0879 13.7686 16.004 13.5982 15.8531C13.3596 15.6015 13.1551 15.3332 12.9847 15.0649C12.8143 14.7798 12.6439 14.4612 12.4565 14.0755C11.1273 15.6183 9.45729 16.3897 7.44649 16.3897C6.01507 16.3897 4.87335 15.9872 4.03835 15.1823C3.20336 14.3774 2.77734 13.3041 2.77734 11.9625C2.77734 10.5371 3.28856 9.38002 4.32805 8.508C5.36753 7.63598 6.74782 7.19997 8.50301 7.19997C9.0824 7.19997 9.67882 7.25028 10.3093 7.33413C10.9398 7.41797 11.5874 7.55213 12.269 7.70306V6.47888C12.269 5.20438 11.9964 4.3156 11.4681 3.79574C10.9228 3.27588 10.0026 3.02434 8.69046 3.02434C8.09404 3.02434 7.48057 3.09141 6.85007 3.24234C6.21956 3.39327 5.6061 3.57773 5.00967 3.81251C4.73702 3.92989 4.53253 3.99697 4.41325 4.03051C4.29396 4.06405 4.20876 4.08082 4.1406 4.08082C3.90203 4.08082 3.78274 3.91312 3.78274 3.56096V2.73925C3.78274 2.47094 3.81683 2.2697 3.90203 2.15232C3.98723 2.03493 4.1406 1.91754 4.37917 1.80015C4.97559 1.4983 5.6913 1.24676 6.52629 1.04552C7.36129 0.827516 8.2474 0.726899 9.18464 0.726899C11.2125 0.726899 12.695 1.17968 13.6493 2.08524C14.5865 2.9908 15.0637 4.3659 15.0637 6.21056V11.6439H15.0978ZM8.17924 14.1929C8.74158 14.1929 9.32096 14.0923 9.93443 13.891C10.5479 13.6898 11.0932 13.3209 11.5533 12.8178C11.8259 12.4992 12.0304 12.147 12.1327 11.7445C12.2349 11.3421 12.3031 10.8557 12.3031 10.2856V9.58125C11.8089 9.46387 11.2806 9.36325 10.7353 9.29617C10.19 9.22909 9.66178 9.19555 9.13352 9.19555C7.99179 9.19555 7.1568 9.41356 6.59446 9.86634C6.03211 10.3191 5.75946 10.9564 5.75946 11.7948C5.75946 12.583 5.96395 13.1699 6.38997 13.5724C6.79894 13.9917 7.39537 14.1929 8.17924 14.1929ZM21.8629 16.004C21.5562 16.004 21.3517 15.9537 21.2154 15.8363C21.079 15.7357 20.9597 15.5009 20.8575 15.1823L16.8529 2.21939C16.7507 1.884 16.6996 1.666 16.6996 1.54861C16.6996 1.2803 16.8359 1.12937 17.1086 1.12937H18.7785C19.1023 1.12937 19.3238 1.17968 19.4431 1.29707C19.5795 1.39768 19.6817 1.63246 19.7839 1.95108L22.6468 13.0526L25.3051 1.95108C25.3903 1.61569 25.4926 1.39768 25.6289 1.29707C25.7652 1.19645 26.0038 1.12937 26.3105 1.12937H27.6738C27.9975 1.12937 28.2191 1.17968 28.3554 1.29707C28.4917 1.39768 28.611 1.63246 28.6792 1.95108L31.3716 13.1867L34.3196 1.95108C34.4219 1.61569 34.5412 1.39768 34.6605 1.29707C34.7968 1.19645 35.0183 1.12937 35.325 1.12937H36.9098C37.1825 1.12937 37.3358 1.26353 37.3358 1.54861C37.3358 1.63246 37.3188 1.71631 37.3018 1.81692C37.2847 1.91754 37.2506 2.0517 37.1825 2.23616L33.0757 15.1991C32.9734 15.5345 32.8541 15.7525 32.7178 15.8531C32.5815 15.9537 32.36 16.0208 32.0703 16.0208H30.6048C30.281 16.0208 30.0595 15.9705 29.9231 15.8531C29.7868 15.7357 29.6675 15.5177 29.5994 15.1823L26.9581 4.3659L24.3338 15.1655C24.2486 15.5009 24.1464 15.7189 24.01 15.8363C23.8737 15.9537 23.6351 16.004 23.3284 16.004H21.8629ZM43.7602 16.4568C42.8741 16.4568 41.9879 16.3562 41.1359 16.1549C40.2839 15.9537 39.6193 15.7357 39.1762 15.4842C38.9036 15.3332 38.7161 15.1655 38.648 15.0146C38.5798 14.8637 38.5457 14.696 38.5457 14.5451V13.6898C38.5457 13.3376 38.6821 13.1699 38.9377 13.1699C39.0399 13.1699 39.1422 13.1867 39.2444 13.2203C39.3466 13.2538 39.5 13.3209 39.6704 13.388C40.2498 13.6395 40.8803 13.8407 41.5449 13.9749C42.2265 14.109 42.8911 14.1761 43.5727 14.1761C44.6463 14.1761 45.4813 13.9917 46.0607 13.6227C46.6401 13.2538 46.9468 12.7172 46.9468 12.0296C46.9468 11.5601 46.7934 11.1744 46.4867 10.8557C46.18 10.5371 45.6006 10.252 44.7656 9.98372L42.2947 9.22909C41.0507 8.84339 40.1305 8.27322 39.5682 7.51859C39.0058 6.78073 38.7161 5.95902 38.7161 5.087C38.7161 4.38267 38.8695 3.7622 39.1762 3.22557C39.483 2.68894 39.8919 2.21939 40.4032 1.85046C40.9144 1.46476 41.4938 1.17968 42.1754 0.978443C42.857 0.777207 43.5727 0.693359 44.3225 0.693359C44.6974 0.693359 45.0894 0.710129 45.4642 0.760438C45.8562 0.810747 46.214 0.877825 46.5719 0.944904C46.9127 1.02875 47.2365 1.1126 47.5432 1.21322C47.8499 1.31383 48.0885 1.41445 48.2589 1.51507C48.4975 1.64923 48.6679 1.78338 48.7701 1.93431C48.8724 2.06847 48.9235 2.25293 48.9235 2.48771V3.27588C48.9235 3.62804 48.7872 3.81251 48.5316 3.81251C48.3952 3.81251 48.1737 3.74543 47.884 3.61127C46.9127 3.17526 45.8221 2.95726 44.6122 2.95726C43.6409 2.95726 42.8741 3.10818 42.3458 3.42681C41.8175 3.74543 41.5449 4.23175 41.5449 4.9193C41.5449 5.38885 41.7153 5.79132 42.0561 6.10994C42.3969 6.42857 43.0274 6.74719 43.9306 7.03227L46.3504 7.78691C47.5773 8.17261 48.4634 8.70923 48.9917 9.39679C49.5199 10.0843 49.7755 10.8725 49.7755 11.7445C49.7755 12.4656 49.6222 13.1196 49.3325 13.6898C49.0257 14.26 48.6168 14.7631 48.0885 15.1655C47.5602 15.5848 46.9297 15.8866 46.197 16.1046C45.4302 16.3394 44.6293 16.4568 43.7602 16.4568Z" fill="white"/>
<path fill-rule="evenodd" clip-rule="evenodd" d="M46.9803 24.6074C41.3739 28.6824 33.2284 30.8457 26.2247 30.8457C16.4093 30.8457 7.56514 27.2738 0.885188 21.3373C0.356927 20.8678 0.834066 20.2305 1.46457 20.5994C8.68982 24.7248 17.6021 27.2234 26.8211 27.2234C33.041 27.2234 39.8743 25.949 46.1623 23.3329C47.0995 22.9137 47.9004 23.9366 46.9803 24.6074Z" fill="white"/>
<path fill-rule="evenodd" clip-rule="evenodd" d="M49.3141 21.9912C48.5983 21.0856 44.5767 21.5552 42.7534 21.7732C42.2081 21.8403 42.1229 21.3707 42.6171 21.0185C45.8207 18.805 51.0863 19.4422 51.6998 20.1801C52.3132 20.9347 51.5293 26.1165 48.5302 28.5984C48.0701 28.9841 47.627 28.7829 47.8315 28.2798C48.5131 26.6196 50.0298 22.88 49.3141 21.9912Z" fill="white"/>
</g>
<defs>
<clipPath id="clip0_2638_58353">
<rect width="51.8037" height="30.5207" fill="white" transform="translate(0.373047 0.508789)"/>
</clipPath>
</defs>
</svg>
