<svg width="80" height="30" viewBox="0 0 80 30" fill="none" xmlns="http://www.w3.org/2000/svg">
<path d="M51.7929 12.5169C50.4911 12.5169 49.4063 13.1199 48.6468 14.0423V12.7297H47.6343V24.2945H48.6468V20.144C49.4063 21.1017 50.4911 21.6694 51.7929 21.6694C54.1797 21.6694 56.1325 19.6118 56.1325 17.0932C56.0964 14.5743 54.1797 12.5169 51.7929 12.5169ZM51.7929 20.7114C49.9486 20.7114 48.466 19.115 48.466 17.1287C48.466 15.142 49.9486 13.5456 51.7929 13.5456C53.6372 13.5456 55.12 15.142 55.12 17.1287C55.0838 19.0795 53.601 20.7114 51.7929 20.7114Z" fill="white"/>
<path d="M40.3652 9.14675C36.9296 9.14675 34.1451 12.0202 34.1451 15.5322C34.1451 19.0443 36.9296 21.9176 40.3652 21.9176C43.8008 21.9176 46.5853 19.0443 46.5853 15.5322C46.5853 12.0202 43.8008 9.14675 40.3652 9.14675ZM40.3652 20.9599C37.4719 20.9599 35.1215 18.512 35.1215 15.5322C35.1215 12.5523 37.4719 10.1046 40.3652 10.1046C43.2582 10.1046 45.6089 12.5523 45.6089 15.5322C45.6089 18.5475 43.2582 20.9599 40.3652 20.9599Z" fill="white"/>
<path d="M70.4534 12.5523C70.0916 12.5523 69.7663 12.6587 69.4406 12.8361C68.7899 13.1908 68.3196 13.6876 68.0304 14.3615C68.0304 14.3615 68.0304 14.397 67.9943 14.397C67.9943 13.8648 67.9943 13.3328 67.9943 12.8006H66.9817C66.9817 15.6739 66.9817 18.5475 66.9817 21.4564C67.3071 21.4564 67.6686 21.4564 67.9943 21.4564C67.9943 21.4209 67.9943 21.4209 67.9943 21.3854C67.9943 19.8247 67.9943 18.441 67.9943 16.9156C67.9943 16.2772 68.1027 15.7449 68.3196 15.2485C68.5004 14.7872 68.7899 14.3615 69.1876 14.0423C69.6578 13.6521 70.2001 13.4746 70.815 13.5811C70.9234 13.5811 70.9957 13.6166 71.1042 13.6521C71.1765 13.3683 71.2849 13.0133 71.3575 12.6942C71.1042 12.5878 70.7065 12.5523 70.4534 12.5523Z" fill="white"/>
<path d="M61.3761 12.5523C58.9893 12.5523 57.0365 14.6097 57.0365 17.1286C57.0365 19.6472 58.9893 21.7048 61.3761 21.7048C63.0758 21.7048 64.5586 20.6404 65.2819 19.115L64.414 18.6185C63.8715 19.8599 62.7505 20.7114 61.4123 20.7114C59.6764 20.7114 58.2662 19.257 58.0852 17.4478H65.7158C65.7158 17.3413 65.7158 17.2348 65.7158 17.1286C65.7158 14.4325 63.9076 12.5523 61.3761 12.5523ZM61.3761 13.5456C63.1843 13.5456 64.4502 14.7517 64.6671 16.5609H58.0852C58.3385 14.8582 59.7126 13.5456 61.3761 13.5456Z" fill="white"/>
<path d="M78.6263 12.7297V14.0423C77.8669 13.0844 76.782 12.5169 75.48 12.5169C73.0931 12.5169 71.1404 14.5743 71.1404 17.0932C71.1404 19.6118 73.0931 21.6694 75.48 21.6694C76.782 21.6694 77.8669 21.0662 78.6263 20.144V21.4564H79.6389V12.7297H78.6263ZM75.48 20.7114C73.6357 20.7114 72.1529 19.115 72.1529 17.1287C72.1529 15.142 73.6357 13.5456 75.48 13.5456C77.3243 13.5456 78.8071 15.142 78.8071 17.1287C78.8071 19.0795 77.3243 20.7114 75.48 20.7114Z" fill="white"/>
<path d="M29.2631 14.7872C29.2631 19.0087 27.3824 22.8045 24.4171 25.4296C20.6923 27.2033 17.2206 25.9616 16.0635 25.1811C19.7159 24.4009 22.5005 20.0374 22.5005 14.7872C22.5005 9.53699 19.7159 5.17362 16.0635 4.39317C17.2206 3.61274 20.6923 2.37114 24.4171 4.14486C27.3824 6.76995 29.2631 10.5657 29.2631 14.7872Z" fill="white"/>
<path d="M9.95165 6.73443C8.36043 8.5791 7.31171 11.3461 7.23938 14.4325V15.1064C7.31171 18.1927 8.36043 20.9598 9.95165 22.8045C12.0491 25.4651 15.1229 27.1322 18.5946 27.1322C20.7284 27.1322 22.7174 26.4937 24.4171 25.3941C21.8494 27.6644 18.45 29.0123 14.7253 29.0123C14.5083 29.0123 14.255 29.0123 14.0381 29.0123C6.3353 28.6931 0.1875 22.4497 0.1875 14.7872C0.1875 6.91179 6.69693 0.526367 14.7253 0.526367C14.7614 0.526367 14.7614 0.526367 14.7976 0.526367C18.4862 0.526367 21.8495 1.90996 24.4171 4.14486C22.7174 3.04515 20.7284 2.40653 18.5946 2.40653C15.1229 2.40653 12.013 4.10931 9.95165 6.73443Z" fill="white"/>
</svg>
