<svg width="105" height="32" viewBox="0 0 105 32" fill="none" xmlns="http://www.w3.org/2000/svg">
<path d="M0.890625 14.4047V20.6961H7.354V14.4047H0.890625Z" fill="white"/>
<path d="M21.5171 14.4047V20.6961H27.8681V14.4047H21.5171Z" fill="white"/>
<path d="M17.302 2.17992H17.5532C22.2479 2.17992 25.9573 4.35985 25.9573 10.7065H27.8682V0H1.00302V10.6789H2.91393C2.63291 5.60158 5.9208 2.17992 10.7024 2.17992H11.5692V24.6295C11.5692 28.2286 9.99554 29.222 7.10107 29.222H6.11752V31.402H22.7537V29.2339H21.9106C18.7263 29.2339 17.3081 28.1735 17.3081 24.6414L17.302 2.17992Z" fill="white"/>
<path d="M38.3527 10.1708C38.3527 11.1459 38.2842 11.5157 38.0446 11.7343C37.8905 11.8856 37.5138 11.9528 37.0516 11.9528H36.829V12.558H41.3145C43.1464 12.558 44.5845 12.1041 45.646 11.0618C46.8615 9.93548 47.4779 8.22075 47.4779 6.35472C47.4779 4.63999 46.9472 3.21104 46.0398 2.01745C44.8927 0.73981 43.4546 0.151426 41.3317 0.151426H36.8461V0.756621H37.0687C37.5309 0.756621 37.9076 0.823873 38.0617 0.975173C38.2842 1.19372 38.3698 1.58037 38.3698 2.5386V10.1708H38.3527ZM40.1161 2.40412C40.1161 1.58037 40.1846 1.36182 40.3387 1.12647C40.5612 0.907923 41.0235 0.756621 41.7083 0.756621C44.362 0.756621 45.4406 2.40412 45.4406 6.35472C45.4406 10.3894 44.4476 11.8856 41.7083 11.8856C40.3387 11.8856 40.1161 11.667 40.1161 10.2381V2.40412Z" fill="white"/>
<path d="M55.7813 8.23763C55.7129 5.48061 54.3432 3.74907 52.2032 3.74907C50.2172 3.74907 48.7791 5.6151 48.7791 8.23763C48.7791 11.0787 50.2172 12.8607 52.4257 12.8607C53.8639 12.8607 54.8568 12.121 55.6273 10.4735L55.0965 10.1709C54.4117 11.583 53.7269 12.121 52.7339 12.121C51.2102 12.121 50.611 10.9946 50.5254 8.23763H55.7813ZM50.611 7.56519C50.611 5.6151 51.2958 4.42152 52.3573 4.42152C53.4187 4.42152 54.0351 5.6151 54.0351 7.56519H50.611Z" fill="white"/>
<path d="M63.0744 12.7095L65.6596 12.5582V12.0371H65.437C64.6838 12.0371 64.5297 11.7345 64.5297 10.4736V3.9005L61.6363 3.96775V4.57294H61.9445C62.6978 4.57294 62.9375 4.87555 62.9375 6.06913V8.38906C62.9375 9.43135 62.7834 10.1038 62.4067 10.7762C62.0301 11.5159 61.4138 11.9026 60.729 11.9026C60.3523 11.9026 59.9757 11.684 59.8216 11.2974C59.6675 10.9275 59.599 10.5577 59.599 9.80119V3.9005L56.7913 3.96775V4.57294H57.0138C57.8527 4.57294 58.0068 4.87555 58.0068 6.06913V9.28005C58.0068 10.6922 58.0753 11.2974 58.4691 11.8858C58.8457 12.491 59.462 12.7768 60.3009 12.7768C61.6021 12.7768 62.4239 12.1043 63.1087 10.6922V12.7095H63.0744Z" fill="white"/>
<path d="M69.1695 4.63921H71.7547V3.96677H69.1695V0.755846H68.6387C68.4162 2.99172 67.8855 3.74822 66.2077 4.11806V4.63921H67.5773V9.80021C67.5773 11.1451 67.7314 11.6662 68.108 12.1201C68.4847 12.574 69.0154 12.7926 69.7858 12.7926C71.3095 12.7926 72.0628 11.8175 72.0628 10.0356V9.66573H71.378V9.88427C71.378 11.2292 71.0014 11.9688 70.2309 11.9688C69.7687 11.9688 69.4777 11.7503 69.3236 11.2964C69.2551 10.9266 69.1695 10.5567 69.1695 9.80021V4.63921Z" fill="white"/>
<path d="M78.2944 3.96762H77.6781C77.6781 4.27021 77.524 4.42152 77.4555 4.42152C77.387 4.42152 77.233 4.35427 77.1474 4.35427C76.6166 3.98442 75.9318 3.83313 75.3155 3.83313C73.7918 3.83313 72.7988 4.80817 72.7988 6.15306C72.7988 7.4307 73.4836 8.17038 75.0073 8.69153C76.2229 9.06137 76.2229 9.06137 76.6851 9.36397C77.1474 9.66657 77.4384 10.1037 77.4384 10.7089C77.4384 11.5326 76.8221 12.205 75.9147 12.205C75.1614 12.205 74.391 11.8352 73.9287 11.1628C73.6206 10.7929 73.4665 10.339 73.1754 9.44803H72.6447V12.5917H73.1754L73.2439 12.4404C73.3124 12.1378 73.4665 12.0706 73.5521 12.0706C73.6206 12.0706 73.7062 12.0706 73.7746 12.1378C74.682 12.6589 75.1443 12.8102 75.8976 12.8102C77.5754 12.8102 78.7909 11.6839 78.7909 10.0532C78.7909 9.22948 78.4143 8.55704 77.7294 8.0359C77.3528 7.7333 76.8221 7.51475 75.6065 7.14491C74.391 6.77507 74.0143 6.40522 74.0143 5.73278C74.0143 4.99309 74.6307 4.38789 75.4524 4.38789C76.668 4.38789 77.3528 5.12758 77.661 6.77507H78.2773V3.96762H78.2944Z" fill="white"/>
<path d="M86.05 10.1709C85.5192 11.5158 84.8344 12.121 83.8414 12.121C82.4033 12.121 81.7185 10.9274 81.7185 8.23763C81.7185 5.69916 82.4718 4.42152 83.927 4.42152C84.6803 4.42152 85.2967 4.79136 85.6048 5.39656C85.5364 5.39656 85.4508 5.39656 85.3823 5.39656C84.92 5.39656 84.5434 5.7664 84.5434 6.28754C84.5434 6.89274 84.92 7.32983 85.4507 7.32983C86.1356 7.32983 86.5978 6.80868 86.5978 6.13624C86.5978 4.79135 85.2967 3.74907 83.7901 3.74907C81.5131 3.74907 79.9038 5.6151 79.9038 8.23763C79.9038 10.9946 81.3419 12.8607 83.5504 12.8607C84.9885 12.8607 85.9815 12.121 86.6663 10.3894L86.05 10.1709Z" fill="white"/>
<path d="M96.168 12.5579V12.0367H95.9454C95.1065 12.0367 94.9525 11.7341 94.9525 10.4733V7.48094C94.9525 5.83345 94.7984 5.24507 94.3361 4.63987C93.9595 4.11872 93.3431 3.81612 92.5042 3.81612C91.4428 3.81612 90.6724 4.33726 90.0731 5.53085V0L87.2654 0.151304V0.672443H87.488C88.3269 0.672443 88.481 0.975047 88.481 2.16863V10.4565C88.481 11.7341 88.3269 12.0199 87.488 12.0199H87.1798V12.5411H91.3572V12.0199H91.049C90.2101 12.0199 90.056 11.7173 90.056 10.4565V8.43917C90.056 7.16152 90.2101 6.42184 90.5183 5.74939C90.8949 5.00971 91.5113 4.62305 92.1105 4.62305C92.4871 4.62305 92.8638 4.77435 93.0179 5.1442C93.2404 5.51404 93.326 5.88388 93.326 7.01023V12.5579H96.168Z" fill="white"/>
<path d="M104.078 8.23763C104.009 5.48061 102.64 3.74907 100.5 3.74907C98.5136 3.74907 97.0755 5.6151 97.0755 8.23763C97.0755 11.0787 98.5136 12.8607 100.722 12.8607C102.16 12.8607 103.153 12.121 103.924 10.4735L103.393 10.1709C102.708 11.583 102.023 12.121 101.03 12.121C99.5066 12.121 98.9074 10.9946 98.8218 8.23763H104.078ZM98.9074 7.56519C98.9074 5.6151 99.5922 4.42152 100.654 4.42152C101.715 4.42152 102.331 5.6151 102.331 7.56519H98.9074Z" fill="white"/>
<path d="M42.3076 19.4339H42.5302C44.4305 19.4339 45.2694 20.4089 45.6461 23.1659L46.1768 23.0987L46.1083 18.8455H36.7606L36.6921 23.0987L37.2228 23.1659C37.2913 22.1236 37.4454 21.6025 37.6851 20.9973C38.1473 20.0222 39.0547 19.4339 40.1162 19.4339H40.5784V28.8481C40.5784 29.8231 40.51 30.1929 40.2703 30.4115C40.0477 30.5628 39.6539 30.63 39.2773 30.63H38.815V31.2352H43.9854V30.63H43.6087C43.1465 30.63 42.7698 30.5628 42.5473 30.4115C42.3247 30.1929 42.3247 29.8063 42.3247 28.8481V19.4339H42.3076Z" fill="white"/>
<path d="M53.2645 26.8977C53.196 24.1407 51.8264 22.4091 49.7719 22.4091C47.7175 22.4091 46.2794 24.2751 46.2794 26.8977C46.2794 29.7387 47.7175 31.5207 49.926 31.5207C51.3641 31.5207 52.3571 30.781 53.196 29.1335L52.5797 28.8309C51.8949 30.2431 51.2785 30.781 50.2171 30.781C48.6934 30.781 48.0941 29.6547 48.0941 26.8977H53.2645ZM48.0941 26.2252C48.0941 24.2751 48.779 23.0816 49.8404 23.0816C50.9019 23.0816 51.5182 24.2751 51.5182 26.2252H48.0941Z" fill="white"/>
<path d="M57.1509 18.694L54.3432 18.8453V19.3665H54.5657C55.319 19.3665 55.5587 19.6691 55.5587 20.8627V29.1505C55.5587 30.4282 55.3361 30.714 54.5657 30.714H54.2576V31.2351H58.3664V30.714H58.0583C57.305 30.714 57.1509 30.4114 57.1509 29.1505V18.694Z" fill="white"/>
<path d="M66.2759 26.8977C66.2074 24.1407 64.8378 22.4091 62.7834 22.4091C60.7974 22.4091 59.3593 24.2751 59.3593 26.8977C59.3593 29.7387 60.7289 31.5207 62.9374 31.5207C64.3755 31.5207 65.3685 30.781 66.2074 29.1335L65.5911 28.8309C64.9748 30.2431 64.29 30.781 63.2285 30.781C61.7904 30.781 61.1056 29.6547 61.1056 26.8977H66.2759ZM61.1056 26.2252C61.1056 24.2751 61.7904 23.0816 62.8518 23.0816C63.9133 23.0816 64.5296 24.2751 64.5296 26.2252H61.1056Z" fill="white"/>
<path d="M76.0173 30.7138H75.8633C75.2469 30.7138 74.9559 30.4112 74.3396 29.5203L72.0625 25.9395L74.117 24.0735C74.9559 23.401 75.1785 23.2497 75.7092 23.2497H75.9317V22.6445H72.131V23.2497H72.4392C73.0555 23.2497 73.2781 23.401 73.2781 23.7036C73.2781 23.9222 73.0555 24.2248 72.7474 24.5274L70.1622 26.696V18.7107L67.3544 18.862V19.3832H67.577C68.4159 19.3832 68.57 19.6858 68.57 20.8794V29.1672C68.57 30.4449 68.4159 30.7306 67.577 30.7306H67.2688V31.2518H71.4462V30.7306H71.138C70.2991 30.7306 70.1451 30.4281 70.1451 29.1672V27.6038L70.8984 26.9313L73.6376 31.2686H76.0173V30.7138Z" fill="white"/>
<path d="M80.5033 22.4264C78.1407 22.4264 76.617 24.2252 76.617 26.9822C76.617 29.672 78.1407 31.538 80.4177 31.538C82.7803 31.538 84.304 29.672 84.304 26.9822C84.304 24.2925 82.7803 22.4264 80.5033 22.4264ZM80.4177 23.0148C81.1025 23.0148 81.7188 23.3847 82.0099 24.1412C82.318 24.8136 82.4721 25.7046 82.4721 26.9822C82.4721 29.588 81.7873 30.9328 80.4177 30.9328C79.048 30.9328 78.4317 29.588 78.4317 26.8982C78.4317 25.7046 78.5858 24.8136 78.894 24.1412C79.2021 23.4687 79.8185 23.0148 80.4177 23.0148Z" fill="white"/>
<path d="M95.6372 31.2356H98.3764V30.7144H98.1539C97.4006 30.7144 97.2465 30.4118 97.2465 29.151V25.7888C97.2465 24.6624 97.0924 23.99 96.7158 23.4688C96.3391 22.8636 95.6543 22.4938 94.8154 22.4938C93.7539 22.4938 92.9835 23.0149 92.4528 24.2085C91.9905 23.0149 91.3057 22.4938 90.2442 22.4938C89.2513 22.4938 88.3439 23.099 88.0357 24.0572V22.561L85.3821 22.6283V23.2335H85.5361C86.375 23.2335 86.5291 23.5361 86.5291 24.7297V29.1342C86.5291 30.4118 86.375 30.6976 85.5361 30.6976H85.228V31.2188H89.3369V30.6976H89.1143C88.2754 30.6976 88.1213 30.395 88.1213 29.1342V26.8143C88.1213 25.4021 88.1898 24.7969 88.498 24.2085C88.8061 23.6033 89.2513 23.3175 89.7991 23.3175C90.2614 23.3175 90.638 23.5361 90.7921 23.9227C91.0147 24.3766 91.1003 24.7465 91.1003 26.3099V31.2356H93.908V30.7144H93.6854C92.8465 30.7144 92.6925 30.4118 92.6925 29.151V26.8311C92.6925 25.2676 92.7609 24.8137 93.0691 24.2253C93.3773 23.6201 93.908 23.3344 94.4387 23.3344C94.8154 23.3344 95.192 23.4857 95.3461 23.8555C95.5687 24.2253 95.6543 24.8305 95.6543 26.0241V31.2356H95.6372Z" fill="white"/>
</svg>
