<svg width="179" height="25" viewBox="0 0 179 25" fill="none" xmlns="http://www.w3.org/2000/svg">
<path d="M136.168 16.7279C136.168 16.6619 136.101 16.5959 135.966 16.6619C134.757 18.0477 132.808 19.1035 130.523 19.1035C127.028 19.1035 124.743 16.7279 124.743 13.0325C124.743 9.27105 126.894 6.96141 130.388 6.96141C132.405 6.96141 134.488 7.88526 135.765 9.20506C135.832 9.27105 135.966 9.20506 135.966 9.13907V7.22537C134.555 5.97156 132.472 5.17969 130.388 5.17969C128.238 5.17969 126.289 5.97156 125.012 7.35735C123.735 8.74313 122.996 10.7228 122.996 13.0325C122.996 17.7177 126.02 20.8852 130.456 20.8852C132.606 20.8852 134.69 20.0934 136.101 18.7736V16.7279H136.168Z" fill="white"/>
<path d="M40.4023 5.57617V7.22591H45.6442V20.4898H47.4587V7.22591H52.7678V5.57617H40.4023Z" fill="white"/>
<path d="M176.491 10.657C175.55 9.66711 173.937 9.27118 172.862 9.27118C171.316 9.27118 169.972 9.79909 169.031 10.8549C168.023 11.8448 167.553 13.3625 167.553 15.0123C167.553 18.9717 170.241 20.7534 172.929 20.7534C174.475 20.7534 175.752 20.2255 176.558 19.2356V20.4894H178.373V5.50977H176.491V10.657ZM176.491 15.0123C176.491 17.058 175.281 19.1036 172.996 19.1036C171.249 19.1036 169.367 17.8498 169.367 15.0783C169.367 13.0326 170.443 10.8549 172.862 10.8549C175.55 10.9209 176.491 13.0986 176.491 15.0123Z" fill="white"/>
<path d="M140.402 5.64258H138.588V20.5562H140.402V5.64258Z" fill="white"/>
<path d="M85.4957 17.7172C85.4957 17.6512 85.4285 17.5852 85.2941 17.6512C84.0844 18.707 82.3371 19.103 81.5979 19.103C79.1785 19.103 77.5657 17.5192 77.5657 15.0116C77.5657 12.504 79.1785 10.9202 81.5979 10.9202C82.3371 10.9202 84.0172 11.1182 85.2941 12.1741C85.3613 12.24 85.4285 12.1741 85.4285 12.1081V10.4583C84.6893 9.99639 83.0764 9.27051 81.4635 9.27051C78.1033 9.27051 75.8184 11.5801 75.8184 15.0116C75.8184 18.4431 78.1033 20.7527 81.4635 20.7527C82.8747 20.7527 84.2188 20.3568 85.4285 19.5649L85.4957 17.7172Z" fill="white"/>
<path d="M61.6402 17.3872C61.6402 17.3212 61.5058 17.2553 61.4386 17.3212C60.6322 18.3111 58.6833 19.2349 57.5408 19.2349C56.3983 19.2349 55.3231 18.905 54.7854 18.2451C54.1134 17.5192 53.7102 16.5294 53.7102 15.5395H62.2451V15.4075C62.2451 13.0319 61.8418 11.7121 60.7666 10.6563C59.8929 9.79842 58.6833 9.27051 57.2048 9.27051C54.0462 9.27051 51.9629 11.5142 51.9629 14.9456C52.0301 18.5091 54.1806 20.6867 57.5408 20.6867C59.1537 20.6867 60.4978 20.1588 61.7746 19.103L61.6402 17.3872ZM60.4306 14.0218H53.643V13.9558C53.7102 13.0319 54.1134 12.24 54.8527 11.5801C55.4575 11.1182 56.2639 10.8543 57.0032 10.8543C59.0865 10.8543 60.3634 12.0421 60.4306 14.0218Z" fill="white"/>
<path d="M163.653 15.1427C163.653 18.1123 161.906 19.1681 160.361 19.1681C158.949 19.1681 157.336 18.1783 157.336 16.3306V9.59961H155.656V16.3306C155.656 18.9701 157.538 20.8179 160.293 20.8179C161.839 20.8179 162.981 20.3559 163.788 19.3661V20.5539H165.401V9.59961H163.721L163.653 15.1427Z" fill="white"/>
<path d="M69.3672 9.27051C67.956 9.27051 66.8135 9.73244 66.0071 10.5903V9.60046H64.2598V20.4888H66.0071V14.2197C66.0071 13.2299 66.3431 12.306 66.8807 11.7121C67.5527 11.1182 68.292 10.8543 69.2328 10.8543C70.6441 10.9202 71.9882 11.7781 71.9882 13.6918V20.3568H73.8027V13.6918C73.8027 12.306 73.3323 11.1842 72.5258 10.4583C71.7866 9.66645 70.6441 9.27051 69.3672 9.27051Z" fill="white"/>
<path d="M96.9867 17.3872C96.9867 17.3212 96.8523 17.2553 96.7851 17.3212C95.9787 18.3111 94.0298 19.2349 92.8873 19.2349C91.7448 19.2349 90.6696 18.905 90.1319 18.2451C89.4599 17.5192 89.0567 16.5294 89.0567 15.5395H97.5916V15.4075C97.5916 13.0319 97.1883 11.7121 96.1131 10.6563C95.1722 9.79842 93.9626 9.27051 92.4841 9.27051C89.3255 9.27051 87.2422 11.5142 87.2422 14.9456C87.3094 18.5091 89.4599 20.6867 92.8201 20.6867C94.433 20.6867 95.7771 20.1588 97.0539 19.103L96.9867 17.3872ZM95.7771 14.0218H88.9895V13.9558C89.0567 13.0319 89.4599 12.24 90.1992 11.5801C90.804 11.1182 91.6104 10.8543 92.3497 10.8543C94.3658 10.8543 95.6427 12.0421 95.7771 14.0218Z" fill="white"/>
<path d="M104.65 9.27051C103.239 9.27051 102.097 9.73244 101.29 10.5903V9.60046H99.543V20.4888H101.223V14.2197C101.223 13.2299 101.559 12.306 102.097 11.7121C102.769 11.1182 103.508 10.8543 104.449 10.8543C105.86 10.9202 107.204 11.7781 107.204 13.6918V20.3568H108.951V13.6918C108.951 12.306 108.481 11.1842 107.675 10.4583C107.07 9.66645 105.995 9.27051 104.65 9.27051Z" fill="white"/>
<path d="M114.865 20.6207C115.94 20.5547 117.15 20.1587 117.15 20.1587V18.509C117.15 18.443 117.082 18.377 117.015 18.443C116.545 18.575 115.604 18.9049 115.133 18.9049C114.932 18.9709 114.797 18.9709 114.663 18.839C114.596 18.773 114.596 18.707 114.596 18.509V11.1841H117.822V9.60039H114.596V6.63086H112.781V9.5344H110.967V11.1182H112.781V18.641C112.781 19.3009 112.983 19.8288 113.386 20.1587C113.722 20.4887 114.26 20.6207 114.865 20.6207Z" fill="white"/>
<path d="M148.263 9.27051C145.037 9.27051 142.887 11.5801 142.887 15.0116C142.887 18.3771 145.037 20.7527 148.263 20.7527C151.489 20.7527 153.639 18.4431 153.639 15.0116C153.707 11.6461 151.489 9.27051 148.263 9.27051ZM144.5 15.0116C144.5 12.57 145.978 10.9862 148.196 10.9862C150.414 10.9862 151.892 12.636 151.892 15.0776C151.892 17.5192 150.414 19.169 148.196 19.169C146.045 19.103 144.5 17.4532 144.5 15.0116Z" fill="white"/>
<path d="M32.1761 11.6725C30.7347 10.2335 28.7406 9.31348 26.5064 9.31348C24.5844 9.31348 22.9267 9.97401 21.4612 11.1299C20.8125 11.6253 20.1639 12.2151 19.323 13.0172C18.8906 13.3946 6.90234 24.8596 6.90234 24.8596C7.55101 24.954 8.39186 24.954 9.18467 24.9776C9.90541 24.9776 23.7195 24.9776 24.2961 24.9776C25.4493 24.9776 26.2181 24.9776 27.0349 24.9304C28.9088 24.7889 30.6626 24.1283 32.08 22.7601C35.2273 19.7169 35.2753 14.7629 32.1761 11.6725ZM29.8698 20.5662C29.2451 21.1559 28.164 21.84 26.3862 21.9108C25.5454 21.9344 24.5844 21.9344 24.1279 21.9344H14.4941C17.9776 18.6081 21.0528 15.6829 21.3891 15.3526C21.7015 15.046 22.4222 14.3854 23.0468 13.8429C24.4162 12.6633 25.6174 12.4038 26.4823 12.4274C27.8277 12.451 29.053 12.9936 29.9419 13.8429C31.8158 15.7065 31.7917 18.7261 29.8698 20.5662Z" fill="white"/>
<path d="M12.8114 10.9412C11.394 9.90324 9.80837 9.31348 8.03055 9.31348C5.79627 9.31348 3.80224 10.2099 2.36077 11.6725C-0.714373 14.7629 -0.690348 19.7169 2.48089 22.7601C3.75419 23.9868 5.29176 24.6473 6.92543 24.8832L10.0006 21.9344C9.49605 21.9344 8.79934 21.9108 8.15068 21.9108C6.34884 21.8636 5.26773 21.1795 4.66712 20.5662C2.74516 18.7261 2.69711 15.7065 4.57102 13.8429C5.43591 12.97 6.68518 12.4274 8.03055 12.4274C8.87141 12.4274 10.0246 12.6633 11.3219 13.7249C11.9466 14.2203 13.3159 15.4234 13.9166 15.9424C13.9406 15.966 13.9886 15.966 14.0127 15.9424L16.1508 13.89C16.1749 13.8664 16.1749 13.7957 16.1508 13.7957C15.1178 12.8285 13.6763 11.5782 12.8114 10.9412Z" fill="white"/>
<path d="M27.3466 7.56693C25.8571 3.48577 21.8931 0.560547 17.2563 0.560547C11.8989 0.560547 7.47836 4.4058 6.68555 9.40699C7.11799 9.33622 7.55043 9.31263 8.0069 9.31263C8.65556 9.31263 9.25617 9.3834 9.80873 9.52494C9.83276 9.52494 9.83276 9.52494 9.83276 9.52494C10.5535 6.1515 13.6046 3.62731 17.2323 3.62731C20.2594 3.62731 22.9021 5.42019 24.1033 7.94438C24.1274 7.96797 24.1514 7.99156 24.1994 7.99156C25.1124 7.75565 26.1694 7.61411 27.2265 7.68488C27.3226 7.70847 27.3466 7.66129 27.3466 7.56693Z" fill="white"/>
</svg>
